# 3ds Max Wavefront OBJ Exporter v0.97b - (c)2007 guruware
# 创建的文件:18.10.2015 15:30:07

mtllib doll2.mtl

#
# object default
#

v  -0.3205 -0.7370 -0.4172
v  0.3414 -0.7370 -0.1556
v  -0.3414 -0.7370 -0.1556
v  0.3205 -0.7370 -0.4172
v  0.3162 -0.7370 0.1558
v  -0.3162 -0.7370 0.1558
v  0.2254 -0.7370 0.4173
v  -0.2254 -0.7370 0.4173
v  -0.3941 -0.7159 -0.1404
v  -0.3734 -0.7159 -0.3998
v  -0.3167 -0.7168 -0.4524
v  0.3734 -0.7159 -0.3998
v  0.3167 -0.7168 -0.4524
v  0.3941 -0.7159 -0.1404
v  -0.3690 -0.7159 0.1558
v  0.3690 -0.7159 0.1558
v  -0.2801 -0.7159 0.4202
v  0.2801 -0.7159 0.4202
v  -0.3205 0.5288 -0.4172
v  0.3414 0.5288 -0.1556
v  0.3205 0.5288 -0.4172
v  -0.3414 0.5288 -0.1556
v  0.3167 0.5077 -0.4646
v  0.3732 0.5077 -0.4148
v  -0.3167 0.5077 -0.4646
v  -0.3732 0.5077 -0.4148
v  0.3941 0.5077 -0.1532
v  -0.3941 0.5077 -0.1532
v  0.3690 0.5077 0.1558
v  0.3162 0.5288 0.1558
v  -0.3162 0.5288 0.1558
v  -0.3690 0.5077 0.1558
v  0.2801 0.5077 0.4202
v  0.2254 0.5288 0.4173
v  0.2100 0.5077 0.4672
v  -0.2100 0.5077 0.4672
v  -0.2254 0.5288 0.4173
v  -0.2801 0.5077 0.4202
v  -0.1302 0.5288 0.2018
v  0.0000 0.5288 0.3192
v  0.0000 0.5288 0.0844
v  0.1302 0.5288 0.2018
v  -0.2965 -0.7028 -0.4057
v  0.2965 -0.5332 -0.3020
v  0.2965 -0.7028 -0.4057
v  -0.2965 -0.5332 -0.3020
v  0.2965 0.0074 -0.3019
v  -0.2965 0.0074 -0.3019
v  0.2965 0.1309 -0.4446
v  -0.2965 0.1309 -0.4446
v  0.2965 0.4882 -0.4464
v  -0.2965 0.4882 -0.4464
v  0.3941 -0.5332 -0.0086
v  0.3733 -0.5332 -0.2692
v  0.3690 -0.5332 0.1558
v  0.2801 -0.5332 0.4202
v  0.3941 0.0074 -0.0086
v  0.3732 0.0074 -0.2696
v  0.3690 0.0074 0.1558
v  0.2801 0.0074 0.4202
v  0.3941 0.1309 -0.1513
v  0.3732 0.1309 -0.4123
v  0.3690 0.1309 0.1558
v  0.2801 0.1309 0.4202
v  0.3167 0.0074 -0.3199
v  0.3167 -0.5332 -0.3199
v  0.3167 0.1309 -0.4626
v  0.2100 0.1309 0.4672
v  0.2100 0.0074 0.4672
v  -0.2100 0.1309 0.4672
v  -0.2100 0.0074 0.4672
v  0.2100 -0.5332 0.4672
v  -0.2100 -0.5332 0.4672
v  0.2100 -0.7159 0.4672
v  -0.2100 -0.7159 0.4672
v  -0.2801 -0.5332 0.4202
v  -0.3690 -0.5332 0.1558
v  -0.3941 -0.5332 -0.0086
v  -0.3733 -0.5332 -0.2692
v  -0.3690 0.0074 0.1558
v  -0.2801 0.0074 0.4202
v  -0.3941 0.0074 -0.0086
v  -0.3732 0.0074 -0.2696
v  -0.3690 0.1309 0.1558
v  -0.2801 0.1309 0.4202
v  -0.3941 0.1309 -0.1513
v  -0.3732 0.1309 -0.4123
v  -0.3167 -0.5332 -0.3199
v  -0.3167 0.0074 -0.3199
v  -0.3167 0.1309 -0.4626
v  -0.0526 0.9411 0.2018
v  0.0000 0.9411 0.1544
v  0.0526 0.9411 0.2018
v  0.0000 0.9411 0.2493
# 94 vertices

vn -0.3534 -0.8303 -0.4309
vn 0.3985 -0.9172 -0.0041
vn -0.3988 -0.9170 -0.0036
vn 0.3534 -0.8303 -0.4309
vn 0.4023 -0.9114 0.0859
vn -0.4020 -0.9119 0.0832
vn 0.2925 -0.8669 0.4037
vn -0.2912 -0.8669 0.4046
vn -0.9267 -0.3757 -0.0022
vn -0.8805 -0.2500 -0.4027
vn -0.4548 -0.3240 -0.8296
vn 0.8805 -0.2505 -0.4024
vn 0.4544 -0.3244 -0.8296
vn 0.9280 -0.3726 0.0006
vn -0.9096 -0.3749 0.1791
vn 0.9116 -0.3709 0.1772
vn -0.7736 -0.3371 0.5366
vn 0.7740 -0.3387 0.5350
vn -0.3349 0.8664 -0.3704
vn 0.3979 0.9174 -0.0004
vn 0.3350 0.8664 -0.3703
vn -0.3978 0.9175 -0.0005
vn 0.4380 0.4441 -0.7817
vn 0.8586 0.3357 -0.3874
vn -0.4381 0.4439 -0.7817
vn -0.8586 0.3355 -0.3876
vn 0.9263 0.3768 0.0011
vn -0.9263 0.3767 0.0011
vn 0.9124 0.3701 0.1745
vn 0.4020 0.9119 0.0832
vn -0.4027 0.9113 0.0854
vn -0.9119 0.3708 0.1757
vn 0.7736 0.3371 0.5366
vn 0.2912 0.8669 0.4046
vn 0.2608 0.3377 0.9044
vn -0.2608 0.3377 0.9044
vn -0.2925 0.8669 0.4037
vn -0.7740 0.3387 0.5350
vn 0.0000 1.0000 -0.0000
vn 0.0000 0.2505 -0.9681
vn 0.0000 0.0001 -1.0000
vn 0.0000 -0.4393 -0.8984
vn 0.0000 -0.0022 -1.0000
vn 0.9990 -0.0084 0.0445
vn 0.9148 0.0572 -0.3998
vn 0.9758 -0.0068 0.2184
vn 0.8069 0.0000 0.5908
vn 0.9992 -0.0007 0.0398
vn 0.9195 -0.0840 -0.3841
vn 0.9745 0.0000 0.2243
vn 0.9999 -0.0052 -0.0101
vn 0.8770 -0.1192 -0.4655
vn 0.9804 0.0064 0.1971
vn 0.6723 -0.1855 -0.7166
vn 0.6826 0.1154 -0.7216
vn 0.6762 -0.1531 -0.7206
vn 0.3028 0.0000 0.9531
vn -0.3028 0.0000 0.9531
vn 0.2608 -0.3377 0.9044
vn -0.2608 -0.3377 0.9044
vn -0.8069 0.0000 0.5908
vn -0.9745 0.0000 0.2243
vn -0.9993 0.0021 0.0378
vn -0.9147 0.0569 -0.4001
vn -0.9764 0.0085 0.2159
vn -0.9986 0.0161 0.0500
vn -0.9195 -0.0840 -0.3841
vn -0.9814 0.0000 0.1917
vn -0.9999 -0.0079 -0.0063
vn -0.8770 -0.1191 -0.4656
vn -0.6831 0.1146 -0.7212
vn -0.6724 -0.1857 -0.7166
vn -0.6763 -0.1528 -0.7206
vn -0.9972 0.0753 -0.0000
vn 0.0000 0.0717 -0.9974
vn 0.9972 0.0753 -0.0000
vn 0.0000 0.0717 0.9974
vn -0.3811 0.6683 -0.6389
vn -0.6878 0.1004 -0.7189
vn -0.6790 0.1161 -0.7249
vn -0.6786 -0.1516 -0.7187
vn -0.6747 -0.1850 -0.7145
vn -0.6753 -0.1857 -0.7138
vn -0.6792 -0.1522 -0.7180
vn -0.4308 -0.1705 -0.8862
vn -0.2222 -0.2760 -0.9351
vn -0.6002 0.5161 -0.6110
vn 0.4308 -0.1705 -0.8862
vn 0.2222 -0.2760 -0.9351
vn 0.6753 -0.1857 -0.7138
vn 0.6792 -0.1522 -0.7180
vn 0.6786 -0.1516 -0.7187
vn 0.6747 -0.1850 -0.7145
vn 0.6809 0.0878 -0.7271
vn 0.6873 0.0978 -0.7198
vn 0.5834 0.5274 -0.6177
vn 0.3812 0.6737 -0.6331
# 97 vertex normals

vt 0.9611 0.9768 0.0000
vt 0.9103 0.8537 0.0000
vt 0.9103 0.9815 0.0000
vt 0.9610 0.8583 0.0000
vt 0.8492 0.8588 0.0000
vt 0.8492 0.9774 0.0000
vt 0.7977 0.8753 0.0000
vt 0.7977 0.9609 0.0000
vt 0.9078 0.9954 0.0000
vt 0.9605 0.9902 0.0000
vt 0.9719 0.9775 0.0000
vt 0.9604 0.8449 0.0000
vt 0.9719 0.8576 0.0000
vt 0.9076 0.8397 0.0000
vt 0.8486 0.9916 0.0000
vt 0.8485 0.8448 0.0000
vt 0.7960 0.9751 0.0000
vt 0.7960 0.8612 0.0000
vt 0.4379 0.9754 0.0000
vt 0.4888 0.8522 0.0000
vt 0.4380 0.8567 0.0000
vt 0.4888 0.9800 0.0000
vt 0.4251 0.8561 0.0000
vt 0.4360 0.8437 0.0000
vt 0.4250 0.9759 0.0000
vt 0.4359 0.9884 0.0000
vt 0.4891 0.8382 0.0000
vt 0.4888 0.9938 0.0000
vt 0.5510 0.8434 0.0000
vt 0.5499 0.8573 0.0000
vt 0.5499 0.9759 0.0000
vt 0.5509 0.9900 0.0000
vt 0.6043 0.8618 0.0000
vt 0.6007 0.8748 0.0000
vt 0.6142 0.8769 0.0000
vt 0.6141 0.9565 0.0000
vt 0.6007 0.9585 0.0000
vt 0.6042 0.9716 0.0000
vt 0.5586 0.9408 0.0000
vt 0.5814 0.9166 0.0000
vt 0.5360 0.9163 0.0000
vt 0.5585 0.8924 0.0000
vt 0.0158 0.0118 0.0000
vt 0.2083 0.1537 0.0000
vt 0.2084 0.0120 0.0000
vt 0.0157 0.1535 0.0000
vt 0.2078 0.5910 0.0000
vt 0.0152 0.5908 0.0000
vt 0.2076 0.7023 0.0000
vt 0.0150 0.7020 0.0000
vt 0.2071 0.9913 0.0000
vt 0.0145 0.9910 0.0000
vt 0.3402 0.0191 0.0000
vt 0.4497 0.1410 0.0000
vt 0.4130 0.0198 0.0000
vt 0.3764 0.1406 0.0000
vt 0.4963 0.1411 0.0000
vt 0.4964 0.0200 0.0000
vt 0.5740 0.1413 0.0000
vt 0.5748 0.0196 0.0000
vt 0.4497 0.4992 0.0000
vt 0.3761 0.4994 0.0000
vt 0.4962 0.4992 0.0000
vt 0.5739 0.4992 0.0000
vt 0.4099 0.5812 0.0000
vt 0.3368 0.5817 0.0000
vt 0.4961 0.5811 0.0000
vt 0.5738 0.5811 0.0000
vt 0.4093 0.8307 0.0000
vt 0.3358 0.8307 0.0000
vt 0.4961 0.8305 0.0000
vt 0.5738 0.8305 0.0000
vt 0.3553 0.4988 0.0000
vt 0.3557 0.1409 0.0000
vt 0.3191 0.0191 0.0000
vt 0.3165 0.5810 0.0000
vt 0.3151 0.8301 0.0000
vt 0.5965 0.5811 0.0000
vt 0.5966 0.4994 0.0000
vt 0.7081 0.5812 0.0000
vt 0.7081 0.4994 0.0000
vt 0.5966 0.1417 0.0000
vt 0.7082 0.1417 0.0000
vt 0.5971 0.0217 0.0000
vt 0.7077 0.0217 0.0000
vt 0.7081 0.8305 0.0000
vt 0.5965 0.8305 0.0000
vt 0.7137 0.0033 0.0000
vt 0.7300 0.0196 0.0000
vt 0.5911 0.0033 0.0000
vt 0.7308 0.1413 0.0000
vt 0.8085 0.1412 0.0000
vt 0.8084 0.0201 0.0000
vt 0.8550 0.1410 0.0000
vt 0.8918 0.0199 0.0000
vt 0.9283 0.1407 0.0000
vt 0.9646 0.0192 0.0000
vt 0.8085 0.4992 0.0000
vt 0.7308 0.4993 0.0000
vt 0.8551 0.4992 0.0000
vt 0.9286 0.4995 0.0000
vt 0.8086 0.5812 0.0000
vt 0.7309 0.5811 0.0000
vt 0.8948 0.5813 0.0000
vt 0.9680 0.5817 0.0000
vt 0.8086 0.8306 0.0000
vt 0.7309 0.8306 0.0000
vt 0.8954 0.8307 0.0000
vt 0.9689 0.8307 0.0000
vt 0.9490 0.1410 0.0000
vt 0.9856 0.0192 0.0000
vt 0.9494 0.4989 0.0000
vt 0.9882 0.5811 0.0000
vt 0.9896 0.8301 0.0000
vt 0.6724 0.9849 0.0000
vt 0.7035 0.8544 0.0000
vt 0.6724 0.8544 0.0000
vt 0.7035 0.9849 0.0000
vt 0.7345 0.9849 0.0000
vt 0.7345 0.8544 0.0000
vt 0.7656 0.9849 0.0000
vt 0.7656 0.8544 0.0000
vt 0.6414 0.8544 0.0000
vt 0.6414 0.9849 0.0000
vt 0.3392 0.8890 0.0000
vt 0.3399 0.9089 0.0000
vt 0.3500 0.8986 0.0000
vt 0.3291 0.8994 0.0000
vt 0.3490 0.1422 0.0000
vt 0.3489 0.4969 0.0000
vt 0.3102 0.5789 0.0000
vt 0.3078 0.8166 0.0000
vt 0.3121 0.0338 0.0000
vt 0.4152 0.9715 0.0000
vt 0.4153 0.8605 0.0000
vt 0.9945 0.5790 0.0000
vt 0.9969 0.8167 0.0000
vt 0.9559 0.4970 0.0000
vt 0.9558 0.1423 0.0000
vt 0.9927 0.0338 0.0000
vt 0.9832 0.8620 0.0000
vt 0.9832 0.9731 0.0000
# 142 texture coords

g default
usemtl _doll2Material__25
s 1
f 1/1/1 2/2/2 3/3/3 
f 2/2/2 1/1/1 4/4/4 
f 5/5/5 3/3/3 2/2/2 
f 3/3/3 5/5/5 6/6/6 
f 7/7/7 6/6/6 5/5/5 
f 6/6/6 7/7/7 8/8/8 
f 9/9/9 1/1/1 3/3/3 
f 1/1/1 9/9/9 10/10/10 
f 11/11/11 1/1/1 10/10/10 
f 11/11/11 4/4/4 1/1/1 
f 12/12/12 2/2/2 4/4/4 
f 4/4/4 13/13/13 12/12/12 
f 4/4/4 11/11/11 13/13/13 
f 2/2/2 12/12/12 14/14/14 
f 14/14/14 5/5/5 2/2/2 
f 3/3/3 15/15/15 9/9/9 
f 15/15/15 3/3/3 6/6/6 
f 5/5/5 14/14/14 16/16/16 
f 16/16/16 7/7/7 5/5/5 
f 6/6/6 17/17/17 15/15/15 
f 17/17/17 6/6/6 8/8/8 
f 7/7/7 16/16/16 18/18/18 
f 19/19/19 20/20/20 21/21/21 
f 20/20/20 19/19/19 22/22/22 
f 23/23/23 19/19/19 21/21/21 
f 23/23/23 21/21/21 24/24/24 
f 19/19/19 23/23/23 25/25/25 
f 19/19/19 25/25/25 26/26/26 
f 26/26/26 22/22/22 19/19/19 
f 21/21/21 27/27/27 24/24/24 
f 27/27/27 21/21/21 20/20/20 
f 22/22/22 26/26/26 28/28/28 
f 20/20/20 29/29/29 27/27/27 
f 29/29/29 20/20/20 30/30/30 
f 28/28/28 31/31/31 22/22/22 
f 31/31/31 28/28/28 32/32/32 
f 30/30/30 33/33/33 29/29/29 
f 33/33/33 30/30/30 34/34/34 
f 33/33/33 34/34/34 35/35/35 
f 34/34/34 36/36/36 35/35/35 
f 36/36/36 34/34/34 37/37/37 
f 32/32/32 37/37/37 31/31/31 
f 37/37/37 38/38/38 36/36/36 
f 37/37/37 32/32/32 38/38/38 
f 37/37/37 39/39/39 31/31/31 
f 39/39/39 37/37/37 40/40/39 
f 40/40/39 37/37/37 34/34/34 
f 41/41/39 31/31/31 39/39/39 
f 41/41/39 30/30/30 20/20/20 
f 30/30/30 41/41/39 42/42/39 
f 34/34/34 42/42/39 40/40/39 
f 42/42/39 34/34/34 30/30/30 
f 41/41/39 20/20/20 22/22/22 
f 31/31/31 41/41/39 22/22/22 
f 43/43/40 44/44/40 45/45/40 
f 44/44/40 43/43/40 46/46/40 
f 46/46/41 47/47/41 44/44/41 
f 47/47/41 46/46/41 48/48/41 
f 48/48/42 49/49/42 47/47/42 
f 49/49/42 48/48/42 50/50/42 
f 50/50/43 51/51/43 49/49/43 
f 51/51/43 50/50/43 52/52/43 
f 12/53/12 53/54/44 14/55/14 
f 53/54/44 12/53/12 54/56/45 
f 55/57/46 14/55/14 53/54/44 
f 14/55/14 55/57/46 16/58/16 
f 56/59/47 16/58/16 55/57/46 
f 16/58/16 56/59/47 18/60/18 
f 54/56/45 57/61/48 53/54/44 
f 57/61/48 54/56/45 58/62/49 
f 53/54/44 59/63/50 55/57/46 
f 59/63/50 53/54/44 57/61/48 
f 55/57/46 60/64/47 56/59/47 
f 60/64/47 55/57/46 59/63/50 
f 58/62/49 61/65/51 57/61/48 
f 61/65/51 58/62/49 62/66/52 
f 57/61/48 63/67/53 59/63/50 
f 63/67/53 57/61/48 61/65/51 
f 59/63/50 64/68/47 60/64/47 
f 64/68/47 59/63/50 63/67/53 
f 62/66/52 27/69/27 61/65/51 
f 27/69/27 62/66/52 24/70/24 
f 61/65/51 29/71/29 63/67/53 
f 29/71/29 61/65/51 27/69/27 
f 63/67/53 33/72/33 64/68/47 
f 33/72/33 63/67/53 29/71/29 
f 65/73/54 62/66/52 58/62/49 
f 58/62/49 66/74/55 65/73/54 
f 66/74/55 58/62/49 54/56/45 
f 54/56/45 13/75/13 66/74/55 
f 13/75/13 54/56/45 12/53/12 
f 62/66/52 65/73/54 67/76/56 
f 67/76/56 24/70/24 62/66/52 
f 24/70/24 67/76/56 23/77/23 
f 68/78/57 60/64/47 64/68/47 
f 60/64/47 68/78/57 69/79/57 
f 70/80/58 69/79/57 68/78/57 
f 69/79/57 70/80/58 71/81/58 
f 71/81/58 72/82/57 69/79/57 
f 72/82/57 71/81/58 73/83/58 
f 73/83/58 74/84/59 72/82/57 
f 74/84/59 73/83/58 75/85/60 
f 68/78/57 36/86/36 70/80/58 
f 36/86/36 68/78/57 35/87/35 
f 8/88/8 74/84/59 75/85/60 
f 17/89/17 8/88/8 75/85/60 
f 74/84/59 8/88/8 7/90/7 
f 7/90/7 18/60/18 74/84/59 
f 18/60/18 72/82/57 74/84/59 
f 72/82/57 18/60/18 56/59/47 
f 56/59/47 69/79/57 72/82/57 
f 69/79/57 56/59/47 60/64/47 
f 64/68/47 35/87/35 68/78/57 
f 35/87/35 64/68/47 33/72/33 
f 75/85/60 76/91/61 17/89/17 
f 76/91/61 75/85/60 73/83/58 
f 77/92/62 17/89/17 76/91/61 
f 17/89/17 77/92/62 15/93/15 
f 78/94/63 15/93/15 77/92/62 
f 15/93/15 78/94/63 9/95/9 
f 79/96/64 9/95/9 78/94/63 
f 9/95/9 79/96/64 10/97/10 
f 76/91/61 80/98/65 77/92/62 
f 80/98/65 76/91/61 81/99/61 
f 77/92/62 82/100/66 78/94/63 
f 82/100/66 77/92/62 80/98/65 
f 78/94/63 83/101/67 79/96/64 
f 83/101/67 78/94/63 82/100/66 
f 81/99/61 84/102/68 80/98/65 
f 84/102/68 81/99/61 85/103/61 
f 80/98/65 86/104/69 82/100/66 
f 86/104/69 80/98/65 84/102/68 
f 82/100/66 87/105/70 83/101/67 
f 87/105/70 82/100/66 86/104/69 
f 85/103/61 32/106/32 84/102/68 
f 32/106/32 85/103/61 38/107/38 
f 84/102/68 28/108/28 86/104/69 
f 28/108/28 84/102/68 32/106/32 
f 86/104/69 26/109/26 87/105/70 
f 26/109/26 86/104/69 28/108/28 
f 88/110/71 10/97/10 79/96/64 
f 10/97/10 88/110/71 11/111/11 
f 89/112/72 79/96/64 83/101/67 
f 79/96/64 89/112/72 88/110/71 
f 90/113/73 83/101/67 87/105/70 
f 83/101/67 90/113/73 89/112/72 
f 25/114/25 87/105/70 26/109/26 
f 87/105/70 25/114/25 90/113/73 
f 70/80/58 38/107/38 85/103/61 
f 85/103/61 71/81/58 70/80/58 
f 71/81/58 85/103/61 81/99/61 
f 81/99/61 73/83/58 71/81/58 
f 73/83/58 81/99/61 76/91/61 
f 38/107/38 70/80/58 36/86/36 
f 91/115/74 41/116/75 39/117/74 
f 41/116/75 91/115/74 92/118/75 
f 93/119/76 41/116/75 92/118/75 
f 41/116/75 93/119/76 42/120/76 
f 94/121/77 42/120/76 93/119/76 
f 42/120/76 94/121/77 40/122/77 
f 91/115/74 40/123/77 94/124/77 
f 40/123/77 91/115/74 39/117/74 
f 92/125/39 94/126/39 93/127/39 
f 94/126/39 92/125/39 91/128/39 
f 13/75/78 44/129/79 66/74/80 
f 47/130/81 66/74/80 44/129/79 
f 66/74/80 47/130/81 65/73/82 
f 49/131/83 65/73/82 47/130/81 
f 65/73/82 49/131/83 67/76/84 
f 51/132/85 67/76/84 49/131/83 
f 67/76/84 51/132/85 23/77/86 
f 44/129/79 13/75/78 45/133/87 
f 23/23/86 52/134/88 25/25/89 
f 52/134/88 23/23/86 51/135/85 
f 25/114/89 50/136/90 90/113/91 
f 50/136/90 25/114/89 52/137/88 
f 48/138/92 90/113/91 50/136/90 
f 90/113/91 48/138/92 89/112/93 
f 46/139/94 89/112/93 48/138/92 
f 89/112/93 46/139/94 88/110/95 
f 43/140/96 88/110/95 46/139/94 
f 88/110/95 43/140/96 11/111/97 
f 11/11/97 45/141/87 13/13/78 
f 45/141/87 11/11/97 43/142/96 
# 184 faces

