# 3ds Max Wavefront OBJ Exporter v0.97b - (c)2007 guruware
# 创建的文件:12.09.2015 19:20:03

mtllib niu.mtl

#
# object default
#

v  -0.3380 1.2081 -0.0000
v  0.1148 1.1065 -0.4192
v  -0.3124 1.0949 -0.4192
v  0.1344 1.2177 -0.0000
v  -0.6912 1.0353 -0.3632
v  -0.7968 1.1325 -0.0000
v  0.5420 1.0693 -0.4192
v  0.6064 1.1789 -0.0000
v  0.6940 1.0177 -0.3676
v  0.7668 1.0693 -0.0000
v  0.6332 0.9261 -0.4888
v  0.5612 0.9257 -0.4444
v  0.7180 0.8969 -0.3896
v  0.1096 0.8037 -0.5304
v  0.6016 0.6773 -0.4972
v  0.8332 0.9117 -0.0000
v  0.7240 0.6773 -0.4408
v  0.6824 0.3793 -0.4544
v  0.7480 0.4965 -0.4356
v  0.7592 0.3401 -0.4388
v  0.6564 0.1753 -0.4048
v  0.7384 0.1873 -0.3824
v  0.8060 0.4689 -0.4036
v  0.8508 0.5845 -0.0000
v  0.9316 0.5193 -0.0000
v  0.8576 0.3397 -0.4048
v  0.8300 0.1297 -0.0000
v  0.9068 0.1577 -0.0000
v  0.8396 0.2113 -0.3464
v  0.9448 0.3385 -0.0000
v  0.7328 0.1165 -0.0000
v  0.5420 0.2145 -0.4336
v  0.1044 0.5009 -0.5584
v  -0.3232 0.7905 -0.5304
v  -0.3336 0.4861 -0.5584
v  -0.7556 0.7453 -0.4240
v  -0.7716 0.4553 -0.4288
v  -0.9448 0.4805 -0.0000
v  -0.9312 0.8153 -0.0000
v  -0.8424 0.1701 -0.0000
v  -0.7388 0.1653 -0.3776
v  0.0988 0.1981 -0.5032
v  -0.3444 0.1817 -0.5032
v  0.6324 0.1037 -0.0000
v  0.5276 0.1053 -0.3660
v  0.5440 0.1053 -0.2332
v  0.3876 0.0773 -0.0000
v  0.3896 0.0909 -0.2268
v  0.4768 0.0117 -0.3108
v  0.4028 0.1053 -0.4176
v  0.0616 0.1053 -0.4288
v  -0.2796 0.1053 -0.4404
v  0.0532 0.0769 -0.2384
v  -0.2832 0.0817 -0.2496
v  0.0496 0.0641 -0.0000
v  -0.2888 0.0705 -0.0000
v  -0.6208 0.1053 -0.4520
v  -0.6196 0.1053 -0.2612
v  -0.6872 0.0117 -0.3452
v  -0.7620 0.1053 -0.2676
v  -0.7460 0.1053 -0.4004
v  -0.6268 0.0889 -0.0000
v  0.8540 0.7001 -0.0000
v  0.1148 1.1065 0.4192
v  -0.3124 1.0949 0.4192
v  -0.6912 1.0353 0.3632
v  0.5420 1.0693 0.4192
v  0.6940 1.0177 0.3676
v  0.6332 0.9261 0.4888
v  0.5612 0.9257 0.4444
v  0.7180 0.8969 0.3896
v  0.1096 0.8037 0.5304
v  0.6016 0.6773 0.4972
v  0.7240 0.6773 0.4408
v  0.6824 0.3793 0.4544
v  0.7480 0.4965 0.4356
v  0.7592 0.3401 0.4388
v  0.6564 0.1753 0.4048
v  0.7384 0.1873 0.3824
v  0.8060 0.4689 0.4036
v  0.8576 0.3397 0.4048
v  0.8396 0.2113 0.3464
v  0.5420 0.2145 0.4336
v  0.1044 0.5009 0.5584
v  -0.3232 0.7905 0.5304
v  -0.3336 0.4861 0.5584
v  -0.7556 0.7453 0.4240
v  -0.7716 0.4553 0.4288
v  -0.7388 0.1653 0.3776
v  0.0988 0.1981 0.5032
v  -0.3444 0.1817 0.5032
v  0.5276 0.1053 0.3660
v  0.5440 0.1053 0.2332
v  0.3896 0.0909 0.2268
v  0.4768 0.0117 0.3108
v  0.4028 0.1053 0.4176
v  0.0616 0.1053 0.4288
v  -0.2796 0.1053 0.4404
v  0.0532 0.0769 0.2384
v  -0.2832 0.0817 0.2496
v  -0.6208 0.1053 0.4520
v  -0.6196 0.1053 0.2612
v  -0.6872 0.0117 0.3452
v  -0.7620 0.1053 0.2676
v  -0.7460 0.1053 0.4004
# 105 vertices

vn -0.1033 0.9947 -0.0000
vn 0.0341 0.7392 -0.6726
vn -0.1105 0.7297 -0.6747
vn 0.0332 0.9994 -0.0000
vn -0.4988 0.6052 -0.6205
vn -0.6304 0.7763 -0.0000
vn 0.1578 0.7001 -0.6964
vn 0.3229 0.9464 -0.0000
vn 0.7076 0.5686 -0.4196
vn 0.7853 0.6191 -0.0000
vn 0.1714 -0.3218 -0.9312
vn -0.0518 0.0551 -0.9971
vn 0.8126 0.1392 -0.5660
vn 0.0442 0.2200 -0.9745
vn 0.2600 0.0735 -0.9628
vn 0.9699 0.2433 -0.0000
vn 0.7288 0.1086 -0.6761
vn 0.1313 -0.1115 -0.9851
vn 0.5693 0.1873 -0.8005
vn 0.2679 -0.1567 -0.9506
vn 0.0237 -0.7957 -0.6052
vn 0.3178 -0.7384 -0.5948
vn 0.6923 0.4492 -0.5648
vn 0.9080 0.4189 -0.0000
vn 0.8890 0.4579 -0.0000
vn 0.7513 -0.0399 -0.6588
vn 0.2565 -0.9665 -0.0000
vn 0.7559 -0.6547 -0.0000
vn 0.6425 -0.6086 -0.4656
vn 0.9992 -0.0388 -0.0000
vn 0.0996 -0.9950 -0.0000
vn 0.2270 -0.4514 -0.8630
vn 0.0698 -0.0543 -0.9961
vn -0.1196 0.2128 -0.9698
vn -0.1325 -0.0436 -0.9902
vn -0.6477 0.1609 -0.7447
vn -0.6822 -0.0902 -0.7255
vn -0.9923 -0.1240 -0.0000
vn -0.9781 0.2080 -0.0000
vn -0.7835 -0.6214 -0.0000
vn -0.7689 0.0400 -0.6381
vn 0.0907 -0.4223 -0.9019
vn -0.1359 -0.4409 -0.8872
vn 0.1850 -0.9827 -0.0000
vn 0.6783 -0.5300 -0.5089
vn 0.1628 -0.9823 0.0930
vn 0.0714 -0.9974 -0.0000
vn -0.0577 -0.9975 0.0419
vn 0.1167 -0.9923 -0.0412
vn -0.0005 -0.6692 -0.7431
vn 0.0460 -0.8662 -0.4975
vn -0.0358 -0.8707 -0.4906
vn 0.0181 -0.9950 -0.0983
vn -0.0400 -0.9956 -0.0853
vn 0.0113 -0.9999 -0.0000
vn -0.0407 -0.9992 -0.0000
vn 0.1211 -0.1761 -0.9769
vn 0.0558 -0.9896 0.1327
vn -0.0218 -0.9997 -0.0131
vn -0.7505 -0.6548 0.0894
vn -0.7586 -0.1654 -0.6302
vn -0.2075 -0.9782 -0.0000
vn 0.9994 0.0360 -0.0000
vn 0.0341 0.7392 0.6726
vn -0.1105 0.7297 0.6747
vn -0.4988 0.6052 0.6205
vn 0.1578 0.7001 0.6964
vn 0.7076 0.5686 0.4196
vn 0.1714 -0.3218 0.9312
vn -0.0518 0.0551 0.9971
vn 0.8126 0.1392 0.5660
vn 0.0442 0.2200 0.9745
vn 0.2600 0.0735 0.9628
vn 0.7288 0.1086 0.6761
vn 0.1313 -0.1115 0.9851
vn 0.5693 0.1873 0.8005
vn 0.2679 -0.1567 0.9506
vn 0.0237 -0.7957 0.6052
vn 0.3178 -0.7384 0.5948
vn 0.6923 0.4492 0.5648
vn 0.7513 -0.0399 0.6588
vn 0.6425 -0.6086 0.4656
vn 0.2270 -0.4514 0.8630
vn 0.0698 -0.0543 0.9961
vn -0.1196 0.2128 0.9698
vn -0.1325 -0.0436 0.9902
vn -0.6477 0.1609 0.7447
vn -0.6822 -0.0902 0.7255
vn -0.7689 0.0400 0.6381
vn 0.0907 -0.4223 0.9019
vn -0.1359 -0.4409 0.8872
vn 0.6783 -0.5300 0.5089
vn 0.1628 -0.9823 -0.0930
vn -0.0577 -0.9975 -0.0419
vn 0.1167 -0.9923 0.0412
vn -0.0005 -0.6692 0.7431
vn 0.0460 -0.8662 0.4975
vn -0.0358 -0.8707 0.4906
vn 0.0181 -0.9950 0.0983
vn -0.0400 -0.9956 0.0853
vn 0.1211 -0.1761 0.9769
vn 0.0558 -0.9896 -0.1327
vn -0.0218 -0.9997 0.0131
vn -0.7505 -0.6548 -0.0894
vn -0.7586 -0.1654 0.6302
# 105 vertex normals

vt 0.3731 0.8709 0.0000
vt 0.5558 0.7305 0.0000
vt 0.4072 0.7307 0.0000
vt 0.5692 0.8776 0.0000
vt 0.2585 0.7309 0.0000
vt 0.1770 0.8642 0.0000
vt 0.7044 0.7304 0.0000
vt 0.7652 0.8843 0.0000
vt 0.7539 0.7280 0.0000
vt 0.8303 0.8477 0.0000
vt 0.7395 0.7103 0.0000
vt 0.7234 0.6932 0.0000
vt 0.7618 0.6947 0.0000
vt 0.5582 0.6303 0.0000
vt 0.7442 0.6035 0.0000
vt 0.8750 0.7752 0.0000
vt 0.7823 0.6146 0.0000
vt 0.7860 0.5019 0.0000
vt 0.8033 0.5556 0.0000
vt 0.8043 0.4952 0.0000
vt 0.8035 0.4258 0.0000
vt 0.8306 0.4409 0.0000
vt 0.8240 0.5486 0.0000
vt 0.9543 0.6466 0.0000
vt 0.9648 0.6145 0.0000
vt 0.8285 0.5035 0.0000
vt 0.9795 0.4455 0.0000
vt 0.9874 0.4689 0.0000
vt 0.8532 0.4614 0.0000
vt 0.9791 0.5401 0.0000
vt 0.9692 0.4090 0.0000
vt 0.7460 0.4284 0.0000
vt 0.5606 0.5301 0.0000
vt 0.3982 0.6309 0.0000
vt 0.3892 0.5311 0.0000
vt 0.2381 0.6315 0.0000
vt 0.2177 0.5321 0.0000
vt 0.0711 0.5944 0.0000
vt 0.1241 0.7293 0.0000
vt 0.0181 0.4595 0.0000
vt 0.1973 0.4222 0.0000
vt 0.5631 0.4192 0.0000
vt 0.3802 0.4207 0.0000
vt 0.8936 0.0447 0.0000
vt 0.9500 0.2629 0.0000
vt 0.9268 0.2631 0.0000
vt 0.9311 0.0532 0.0000
vt 0.8877 0.0862 0.0000
vt 0.8933 0.1510 0.0000
vt 0.8335 0.2656 0.0000
vt 0.8348 0.1564 0.0000
vt 0.8649 0.1209 0.0000
vt 0.8404 0.0620 0.0000
vt 0.7112 0.0588 0.0000
vt 0.7258 0.0491 0.0000
vt 0.5821 0.0557 0.0000
vt 0.5579 0.0535 0.0000
vt 0.7074 0.1527 0.0000
vt 0.5801 0.1491 0.0000
vt 0.7054 0.2674 0.0000
vt 0.5774 0.2693 0.0000
vt 0.3900 0.0579 0.0000
vt 0.4530 0.0525 0.0000
vt 0.4528 0.1455 0.0000
vt 0.4272 0.1123 0.0000
vt 0.3989 0.1434 0.0000
vt 0.3646 0.2715 0.0000
vt 0.4054 0.0784 0.0000
vt 0.4493 0.2712 0.0000
vt 0.9213 0.7001 0.0000
# 70 texture coords

g default
usemtl doll015_cow
s 1
f 1/1/1 2/2/2 3/3/3 
f 2/2/2 1/1/1 4/4/4 
f 5/5/5 1/1/1 3/3/3 
f 1/1/1 5/5/5 6/6/6 
f 4/4/4 7/7/7 2/2/2 
f 7/7/7 4/4/4 8/8/8 
f 8/8/8 9/9/9 7/7/7 
f 9/9/9 8/8/8 10/10/10 
f 7/7/7 9/9/9 11/11/11 
f 7/7/7 11/11/11 12/12/12 
f 12/12/12 2/2/2 7/7/7 
f 13/13/13 12/12/12 11/11/11 
f 14/14/14 3/3/3 2/2/2 
f 2/2/2 12/12/12 14/14/14 
f 15/15/15 14/14/14 12/12/12 
f 13/13/13 15/15/15 12/12/12 
f 10/10/10 13/13/13 9/9/9 
f 13/13/13 10/10/10 16/16/16 
f 15/15/15 13/13/13 17/17/17 
f 15/15/15 17/17/17 18/18/18 
f 19/19/19 18/18/18 17/17/17 
f 18/18/18 19/19/19 20/20/20 
f 20/20/20 21/21/21 18/18/18 
f 21/21/21 20/20/20 22/22/22 
f 23/23/23 20/20/20 19/19/19 
f 24/24/24 23/23/23 19/19/19 
f 17/17/17 24/24/24 19/19/19 
f 23/23/23 24/24/24 25/25/25 
f 20/20/20 23/23/23 26/26/26 
f 27/27/27 21/21/21 22/22/22 
f 22/22/22 28/28/28 27/27/27 
f 28/28/28 22/22/22 29/29/29 
f 29/29/29 20/20/20 26/26/26 
f 20/20/20 29/29/29 22/22/22 
f 29/29/29 30/30/30 28/28/28 
f 30/30/30 29/29/29 26/26/26 
f 23/23/23 30/30/30 26/26/26 
f 30/30/30 23/23/23 25/25/25 
f 21/21/21 27/27/27 31/31/31 
f 18/18/18 21/21/21 32/32/32 
f 18/18/18 32/32/32 15/15/15 
f 32/32/32 33/33/33 15/15/15 
f 14/14/14 15/15/15 33/33/33 
f 33/33/33 34/34/34 14/14/14 
f 34/34/34 33/33/33 35/35/35 
f 35/35/35 36/36/36 34/34/34 
f 36/36/36 35/35/35 37/37/37 
f 38/38/38 36/36/36 37/37/37 
f 36/36/36 38/38/38 39/39/39 
f 37/37/37 40/40/40 38/38/38 
f 40/40/40 37/37/37 41/41/41 
f 39/39/39 5/5/5 36/36/36 
f 5/5/5 34/34/34 36/36/36 
f 5/5/5 39/39/39 6/6/6 
f 3/3/3 14/14/14 34/34/34 
f 34/34/34 5/5/5 3/3/3 
f 42/42/42 35/35/35 33/33/33 
f 33/33/33 32/32/32 42/42/42 
f 35/35/35 42/42/42 43/43/43 
f 37/37/37 43/43/43 41/41/41 
f 43/43/43 37/37/37 35/35/35 
f 32/44/32 31/45/31 44/46/44 
f 31/45/31 32/44/32 21/47/21 
f 44/46/44 45/48/45 32/44/32 
f 45/48/45 44/46/44 46/49/46 
f 47/50/47 46/49/46 44/46/44 
f 46/49/46 47/50/47 48/51/48 
f 48/51/48 49/52/49 46/49/46 
f 45/48/45 49/52/49 50/53/50 
f 50/53/50 49/52/49 48/51/48 
f 50/53/50 32/44/32 45/48/45 
f 46/49/46 49/52/49 45/48/45 
f 51/54/51 32/44/32 50/53/50 
f 48/51/48 51/54/51 50/53/50 
f 51/54/51 42/55/42 32/44/32 
f 52/56/52 42/55/42 51/54/51 
f 42/55/42 52/56/52 43/57/43 
f 53/58/53 52/56/52 51/54/51 
f 47/50/47 53/58/53 48/51/48 
f 51/54/51 48/51/48 53/58/53 
f 52/56/52 53/58/53 54/59/54 
f 55/60/55 54/59/54 53/58/53 
f 53/58/53 47/50/47 55/60/55 
f 54/59/54 55/60/55 56/61/56 
f 43/57/43 52/56/52 41/62/41 
f 41/62/41 52/56/52 57/63/57 
f 56/61/56 58/64/58 54/59/54 
f 52/56/52 58/64/58 57/63/57 
f 58/64/58 52/56/52 54/59/54 
f 58/64/58 59/65/59 57/63/57 
f 60/66/60 59/65/59 58/64/58 
f 41/62/41 60/66/60 40/67/40 
f 58/64/58 40/67/40 60/66/60 
f 57/63/57 59/65/59 61/68/61 
f 60/66/60 41/62/41 61/68/61 
f 61/68/61 59/65/59 60/66/60 
f 40/67/40 58/64/58 62/69/62 
f 58/64/58 56/61/56 62/69/62 
f 41/62/41 57/63/57 61/68/61 
f 9/9/9 13/13/13 11/11/11 
f 13/13/13 63/70/63 17/17/17 
f 24/24/24 17/17/17 63/70/63 
f 63/70/63 13/13/13 16/16/16 
f 1/1/1 64/2/64 4/4/4 
f 64/2/64 1/1/1 65/3/65 
f 1/1/1 66/5/66 65/3/65 
f 66/5/66 1/1/1 6/6/6 
f 67/7/67 4/4/4 64/2/64 
f 4/4/4 67/7/67 8/8/8 
f 68/9/68 8/8/8 67/7/67 
f 8/8/8 68/9/68 10/10/10 
f 67/7/67 69/11/69 68/9/68 
f 67/7/67 70/12/70 69/11/69 
f 64/2/64 70/12/70 67/7/67 
f 71/13/71 69/11/69 70/12/70 
f 65/3/65 72/14/72 64/2/64 
f 70/12/70 64/2/64 72/14/72 
f 72/14/72 73/15/73 70/12/70 
f 73/15/73 71/13/71 70/12/70 
f 71/13/71 10/10/10 68/9/68 
f 10/10/10 71/13/71 16/16/16 
f 71/13/71 73/15/73 74/17/74 
f 73/15/73 75/18/75 74/17/74 
f 75/18/75 76/19/76 74/17/74 
f 76/19/76 75/18/75 77/20/77 
f 78/21/78 77/20/77 75/18/75 
f 77/20/77 78/21/78 79/22/79 
f 77/20/77 80/23/80 76/19/76 
f 80/23/80 24/24/24 76/19/76 
f 24/24/24 74/17/74 76/19/76 
f 24/24/24 80/23/80 25/25/25 
f 80/23/80 77/20/77 81/26/81 
f 78/21/78 27/27/27 79/22/79 
f 28/28/28 79/22/79 27/27/27 
f 79/22/79 28/28/28 82/29/82 
f 82/29/82 77/20/77 79/22/79 
f 77/20/77 82/29/82 81/26/81 
f 82/29/82 30/30/30 81/26/81 
f 30/30/30 82/29/82 28/28/28 
f 80/23/80 30/30/30 25/25/25 
f 30/30/30 80/23/80 81/26/81 
f 27/27/27 78/21/78 31/31/31 
f 75/18/75 83/32/83 78/21/78 
f 75/18/75 73/15/73 83/32/83 
f 84/33/84 83/32/83 73/15/73 
f 73/15/73 72/14/72 84/33/84 
f 85/34/85 84/33/84 72/14/72 
f 84/33/84 85/34/85 86/35/86 
f 87/36/87 86/35/86 85/34/85 
f 86/35/86 87/36/87 88/37/88 
f 87/36/87 38/38/38 88/37/88 
f 38/38/38 87/36/87 39/39/39 
f 40/40/40 88/37/88 38/38/38 
f 88/37/88 40/40/40 89/41/89 
f 66/5/66 39/39/39 87/36/87 
f 85/34/85 66/5/66 87/36/87 
f 39/39/39 66/5/66 6/6/6 
f 72/14/72 65/3/65 85/34/85 
f 66/5/66 85/34/85 65/3/65 
f 86/35/86 90/42/90 84/33/84 
f 83/32/83 84/33/84 90/42/90 
f 90/42/90 86/35/86 91/43/91 
f 88/37/88 91/43/91 86/35/86 
f 91/43/91 88/37/88 89/41/89 
f 83/44/83 31/45/31 78/47/78 
f 31/45/31 83/44/83 44/46/44 
f 92/48/92 44/46/44 83/44/83 
f 44/46/44 92/48/92 93/49/93 
f 93/49/93 47/50/47 44/46/44 
f 47/50/47 93/49/93 94/51/94 
f 94/51/94 93/49/93 95/52/95 
f 92/48/92 96/53/96 95/52/95 
f 96/53/96 94/51/94 95/52/95 
f 83/44/83 96/53/96 92/48/92 
f 93/49/93 92/48/92 95/52/95 
f 97/54/97 96/53/96 83/44/83 
f 97/54/97 94/51/94 96/53/96 
f 97/54/97 83/44/83 90/55/90 
f 90/55/90 98/56/98 97/54/97 
f 98/56/98 90/55/90 91/57/91 
f 98/56/98 99/58/99 97/54/97 
f 99/58/99 47/50/47 94/51/94 
f 94/51/94 97/54/97 99/58/99 
f 99/58/99 98/56/98 100/59/100 
f 100/59/100 55/60/55 99/58/99 
f 47/50/47 99/58/99 55/60/55 
f 55/60/55 100/59/100 56/61/56 
f 91/57/91 89/62/89 98/56/98 
f 98/56/98 89/62/89 101/63/101 
f 102/64/102 56/61/56 100/59/100 
f 98/56/98 102/64/102 100/59/100 
f 102/64/102 98/56/98 101/63/101 
f 102/64/102 101/63/101 103/65/103 
f 104/66/104 102/64/102 103/65/103 
f 104/66/104 89/62/89 40/67/40 
f 40/67/40 102/64/102 104/66/104 
f 101/63/101 105/68/105 103/65/103 
f 89/62/89 104/66/104 105/68/105 
f 105/68/105 104/66/104 103/65/103 
f 102/64/102 40/67/40 62/69/62 
f 56/61/56 102/64/102 62/69/62 
f 101/63/101 89/62/89 105/68/105 
f 68/9/68 69/11/69 71/13/71 
f 71/13/71 63/70/63 16/16/16 
f 63/70/63 71/13/71 74/17/74 
f 74/17/74 24/24/24 63/70/63 
# 206 faces

