# 3ds Max Wavefront OBJ Exporter v0.97b - (c)2007 guruware
# 创建的文件:11.09.2015 18:43:00

mtllib doll1.mtl

#
# object default
#

v  0.2426 0.9583 0.4170
v  -0.0614 1.0722 0.0000
v  -0.0591 0.9731 0.4514
v  0.2763 1.0551 -0.0000
v  0.5341 0.9220 0.3436
v  0.5825 1.0127 -0.0000
v  0.6153 0.8627 0.3275
v  0.6653 0.9435 -0.0000
v  0.5313 0.7849 0.4268
v  0.6126 0.7807 0.3864
v  0.6058 0.4601 0.3964
v  0.5285 0.4613 0.4542
v  0.2362 0.8071 0.4954
v  0.2297 0.4499 0.5271
v  -0.0673 0.8034 0.5329
v  -0.0756 0.4442 0.5410
v  -0.3943 0.9414 0.4034
v  -0.4043 0.7997 0.4800
v  0.6053 0.2486 0.3212
v  0.5257 0.2028 0.4006
v  0.2233 0.1875 0.4683
v  -0.6591 0.8976 0.2866
v  -0.4135 1.0283 0.0000
v  -0.7293 0.9567 0.0000
v  -0.7001 0.7922 0.3613
v  -0.4144 0.4385 0.4832
v  -0.7219 0.4271 0.3627
v  -0.3906 0.1973 0.4221
v  -0.6912 0.1988 0.3415
v  -0.0670 0.1916 0.4729
v  0.7072 0.5485 0.2395
v  0.7035 0.4603 0.2664
v  0.7572 0.5230 0.2109
v  0.7633 0.5953 -0.0000
v  0.8124 0.5687 -0.0000
v  0.7680 0.4598 0.2347
v  0.8279 0.4699 -0.0000
v  0.7986 0.3710 -0.0000
v  0.7549 0.3966 0.2343
v  0.6997 0.3721 0.2660
v  0.7683 0.3477 -0.0000
v  0.6733 0.1805 -0.0000
v  -0.8279 0.4292 0.0000
v  -0.8014 0.8210 0.0000
v  -0.7858 0.1838 0.0000
v  0.6029 0.1243 -0.0000
v  0.5131 0.1064 0.3236
v  0.4226 0.0044 0.3366
v  0.4952 0.0044 0.3068
v  0.4024 0.1064 0.3690
v  0.4220 0.0044 0.2259
v  0.3908 0.0848 0.2004
v  0.5046 0.0044 0.2297
v  0.5587 0.1048 0.2061
v  -0.0642 0.0856 0.3913
v  -0.0631 0.0537 0.0000
v  -0.5011 0.1064 0.2239
v  -0.5005 0.0773 0.0000
v  -0.5020 0.1064 0.3667
v  -0.5215 0.0044 0.2494
v  -0.6875 0.1216 0.2296
v  -0.5222 0.0044 0.3445
v  -0.5948 0.0044 0.3225
v  -0.6428 0.1064 0.3266
v  -0.6042 0.0044 0.2531
v  -0.7210 0.0874 0.0000
v  0.5419 0.0970 -0.0000
v  0.3877 0.0643 -0.0000
v  0.2426 0.9583 -0.4170
v  -0.0591 0.9731 -0.4514
v  0.5341 0.9220 -0.3436
v  0.6153 0.8627 -0.3275
v  0.5313 0.7849 -0.4268
v  0.6126 0.7807 -0.3864
v  0.6058 0.4601 -0.3964
v  0.5285 0.4613 -0.4542
v  0.2362 0.8071 -0.4954
v  0.2297 0.4499 -0.5271
v  -0.0673 0.8034 -0.5329
v  -0.0756 0.4442 -0.5410
v  -0.3943 0.9414 -0.4034
v  -0.4043 0.7997 -0.4800
v  0.6053 0.2486 -0.3212
v  0.5257 0.2028 -0.4006
v  0.2233 0.1875 -0.4683
v  -0.6591 0.8976 -0.2866
v  -0.7001 0.7922 -0.3613
v  -0.4144 0.4385 -0.4832
v  -0.7219 0.4271 -0.3627
v  -0.3906 0.1973 -0.4221
v  -0.6912 0.1988 -0.3415
v  -0.0670 0.1916 -0.4729
v  0.7072 0.5485 -0.2395
v  0.7035 0.4603 -0.2664
v  0.7572 0.5230 -0.2109
v  0.7680 0.4598 -0.2347
v  0.7549 0.3966 -0.2343
v  0.6997 0.3721 -0.2660
v  0.5131 0.1064 -0.3236
v  0.4226 0.0044 -0.3366
v  0.4024 0.1064 -0.3690
v  0.4952 0.0044 -0.3068
v  0.4220 0.0044 -0.2259
v  0.3908 0.0848 -0.2004
v  0.5046 0.0044 -0.2297
v  0.5587 0.1048 -0.2061
v  -0.0642 0.0856 -0.3913
v  -0.5011 0.1064 -0.2239
v  -0.5020 0.1064 -0.3667
v  -0.6875 0.1216 -0.2296
v  -0.5215 0.0044 -0.2494
v  -0.5222 0.0044 -0.3445
v  -0.5948 0.0044 -0.3225
v  -0.6428 0.1064 -0.3266
v  -0.6042 0.0044 -0.2531
# 115 vertices

vn 0.1285 0.7801 0.6124
vn -0.0248 0.9997 0.0000
vn -0.0206 0.7782 0.6276
vn 0.0851 0.9964 -0.0000
vn 0.3118 0.7657 0.5626
vn 0.3447 0.9387 -0.0000
vn 0.6787 0.5391 0.4988
vn 0.7761 0.6306 -0.0000
vn 0.2911 0.2790 0.9151
vn 0.6238 0.2632 0.7360
vn 0.5975 -0.1005 0.7955
vn 0.3591 -0.0747 0.9303
vn 0.1403 0.2723 0.9519
vn 0.1143 -0.0789 0.9903
vn -0.0273 0.2412 0.9701
vn -0.0459 -0.1203 0.9917
vn -0.2007 0.7761 0.5978
vn -0.2204 0.2644 0.9389
vn 0.6660 -0.5176 0.5372
vn 0.4663 -0.4410 0.7669
vn 0.0819 -0.4649 0.8816
vn -0.4372 0.7758 0.4550
vn -0.1443 0.9895 0.0000
vn -0.5691 0.8223 0.0000
vn -0.6324 0.3382 0.6969
vn -0.2120 -0.1228 0.9695
vn -0.6845 -0.0750 0.7251
vn -0.1594 -0.2995 0.9407
vn -0.6275 -0.3198 0.7099
vn -0.0387 -0.4311 0.9015
vn 0.7519 0.2965 0.5888
vn 0.5810 0.0957 0.8082
vn 0.6490 0.5413 0.5346
vn 0.7354 0.6776 -0.0000
vn 0.7808 0.6247 -0.0000
vn 0.7360 0.0789 0.6723
vn 0.9982 -0.0598 -0.0000
vn 0.7744 -0.6327 -0.0000
vn 0.6510 -0.5058 0.5659
vn 0.6739 -0.4107 0.6141
vn 0.6525 -0.7578 -0.0000
vn 0.6905 -0.7234 -0.0000
vn -0.9980 -0.0625 0.0000
vn -0.9412 0.3379 0.0000
vn -0.9081 -0.4188 0.0000
vn 0.5096 -0.8604 -0.0000
vn 0.6108 -0.4262 0.6673
vn -0.4095 -0.7039 0.5803
vn 0.4685 -0.7302 0.4973
vn 0.0307 -0.6086 0.7929
vn -0.4504 -0.7521 -0.4812
vn -0.1541 -0.9837 -0.0928
vn 0.4180 -0.7770 -0.4707
vn 0.8158 -0.5728 0.0797
vn -0.0198 -0.8804 0.4738
vn -0.0162 -0.9999 0.0000
vn 0.1854 -0.9691 -0.1626
vn -0.0388 -0.9992 0.0000
vn 0.0708 -0.5847 0.8082
vn 0.4935 -0.7013 -0.5145
vn -0.6319 -0.7575 0.1641
vn 0.4286 -0.6815 0.5932
vn -0.4140 -0.7383 0.5324
vn -0.5437 -0.4579 0.7034
vn -0.4068 -0.7796 -0.4761
vn -0.4593 -0.8883 0.0000
vn 0.2219 -0.9751 -0.0000
vn 0.0895 -0.9960 -0.0000
vn 0.1285 0.7801 -0.6124
vn -0.0206 0.7782 -0.6276
vn 0.3118 0.7657 -0.5626
vn 0.6787 0.5391 -0.4988
vn 0.2911 0.2790 -0.9151
vn 0.6238 0.2632 -0.7360
vn 0.5975 -0.1005 -0.7955
vn 0.3591 -0.0747 -0.9303
vn 0.1403 0.2723 -0.9519
vn 0.1143 -0.0789 -0.9903
vn -0.0273 0.2412 -0.9701
vn -0.0459 -0.1203 -0.9917
vn -0.2007 0.7761 -0.5978
vn -0.2204 0.2644 -0.9389
vn 0.6660 -0.5176 -0.5372
vn 0.4663 -0.4410 -0.7669
vn 0.0819 -0.4649 -0.8816
vn -0.4372 0.7758 -0.4550
vn -0.6324 0.3382 -0.6969
vn -0.2120 -0.1228 -0.9695
vn -0.6845 -0.0750 -0.7251
vn -0.1594 -0.2995 -0.9407
vn -0.6275 -0.3198 -0.7099
vn -0.0387 -0.4311 -0.9015
vn 0.7519 0.2965 -0.5888
vn 0.5810 0.0957 -0.8082
vn 0.6490 0.5413 -0.5346
vn 0.7360 0.0789 -0.6723
vn 0.6510 -0.5058 -0.5659
vn 0.6739 -0.4107 -0.6141
vn 0.6108 -0.4262 -0.6673
vn -0.4095 -0.7039 -0.5803
vn 0.0307 -0.6086 -0.7929
vn 0.4685 -0.7302 -0.4973
vn -0.4504 -0.7521 0.4812
vn -0.1541 -0.9837 0.0928
vn 0.4180 -0.7770 0.4707
vn 0.8158 -0.5728 -0.0797
vn -0.0198 -0.8804 -0.4738
vn 0.1854 -0.9691 0.1626
vn 0.0708 -0.5847 -0.8082
vn -0.6319 -0.7575 -0.1641
vn 0.4935 -0.7013 0.5145
vn 0.4286 -0.6815 -0.5932
vn -0.4140 -0.7383 -0.5324
vn -0.5437 -0.4579 -0.7034
vn -0.4068 -0.7796 0.4761
# 115 vertex normals

vt 0.6064 0.6828 0.0000
vt 0.4742 0.5831 0.0000
vt 0.6062 0.5798 0.0000
vt 0.4770 0.6978 0.0000
vt 0.6067 0.8887 0.0000
vt 0.4825 0.9271 0.0000
vt 0.6087 0.9480 0.0000
vt 0.4963 0.9866 0.0000
vt 0.7064 0.8878 0.0000
vt 1.7119 1.4166 0.0000
vt 1.7506 1.4580 0.0000
vt 1.7120 1.4582 0.0000
vt 0.7020 0.9470 0.0000
vt 1.6675 1.5132 0.0000
vt 1.7563 1.5714 0.0000
vt 1.6630 1.5724 0.0000
vt 1.7672 1.5123 0.0000
vt 1.6584 0.1258 0.0000
vt 1.7662 0.3209 0.0000
vt 1.6543 0.3217 0.0000
vt 1.7520 1.4159 0.0000
vt 1.7118 1.3958 0.0000
vt 1.7718 0.1227 0.0000
vt 1.7527 1.3948 0.0000
vt 1.7911 1.4152 0.0000
vt 1.7920 1.3939 0.0000
vt 1.7118 1.3751 0.0000
vt 0.6060 0.4769 0.0000
vt 1.7534 1.3738 0.0000
vt 1.8496 1.5704 0.0000
vt 1.8670 1.5114 0.0000
vt 1.8781 0.3200 0.0000
vt 1.8969 0.1196 0.0000
vt 1.7117 1.3335 0.0000
vt 0.4714 0.4685 0.0000
vt 0.6057 0.2709 0.0000
vt 0.4659 0.2392 0.0000
vt 1.7548 1.3317 0.0000
vt 1.7930 1.3726 0.0000
vt 1.7949 1.3301 0.0000
vt 1.8341 1.3459 0.0000
vt 1.8351 1.3284 0.0000
vt 1.8361 1.3802 0.0000
vt 1.8341 1.4145 0.0000
vt 0.0788 0.3698 0.0000
vt 0.0421 0.3449 0.0000
vt 0.0746 0.3396 0.0000
vt 0.0509 0.4308 0.0000
vt 0.1852 0.4877 0.0000
vt 0.2176 0.5472 0.0000
vt 0.1946 0.5663 0.0000
vt 0.4244 0.6141 0.0000
vt 0.4244 0.5921 0.0000
vt 0.2061 0.4853 0.0000
vt -0.5863 0.0408 0.0000
vt -0.6296 0.3820 0.0000
vt -0.8629 0.3394 0.0000
vt -0.5665 0.2403 0.0000
vt -0.8629 0.0046 0.0000
vt 0.4244 0.4951 0.0000
vt 0.4244 0.3982 0.0000
vt 0.1947 0.4233 0.0000
vt 0.1759 0.4090 0.0000
vt 0.0788 0.3149 0.0000
vt 0.0703 0.3094 0.0000
vt 0.4244 0.3707 0.0000
vt 0.0283 0.2643 0.0000
vt 0.1819 0.2947 0.0000
vt 0.1819 0.2214 0.0000
vt 1.8533 0.8576 0.0000
vt 1.6466 0.6604 0.0000
vt 1.8527 0.6543 0.0000
vt 1.6478 0.8449 0.0000
vt 0.0265 0.1537 0.0000
vt 0.1295 0.0247 0.0000
vt 0.1341 0.1522 0.0000
vt 0.0109 0.0258 0.0000
vt -0.3974 0.4555 0.0000
vt -0.1472 0.6977 0.0000
vt -0.4133 0.7005 0.0000
vt -0.1203 0.4472 0.0000
vt 0.5643 -0.0504 0.0000
vt 0.5457 -0.0255 0.0000
vt 0.5586 -0.0476 0.0000
vt 0.5639 -0.0255 0.0000
vt 0.6740 -0.0497 0.0000
vt 0.5679 -0.0447 0.0000
vt 0.5932 -0.0459 0.0000
vt 0.5729 -0.0431 0.0000
vt 0.5988 -0.0491 0.0000
vt 0.5933 -0.0376 0.0000
vt 0.6021 -0.0371 0.0000
vt 0.5690 -0.0370 0.0000
vt 0.5626 -0.0347 0.0000
vt 0.7252 -0.0505 0.0000
vt 0.7238 -0.0422 0.0000
vt 0.8514 -0.0416 0.0000
vt 0.8330 -0.0406 0.0000
vt 0.8517 -0.0520 0.0000
vt 0.8571 -0.0424 0.0000
vt 0.8866 -0.0405 0.0000
vt 0.8573 -0.0489 0.0000
vt 0.8776 -0.0460 0.0000
vt 0.8826 -0.0476 0.0000
vt 0.8802 -0.0427 0.0000
vt 0.8934 -0.0483 0.0000
vt 0.8488 -0.0486 0.0000
vt 0.8964 -0.0326 0.0000
vt 0.8797 -0.0322 0.0000
vt 0.7614 -0.0492 0.0000
vt 0.5816 -0.0300 0.0000
vt 0.6173 -0.0360 0.0000
vt 1.7384 1.4974 0.0000
vt 1.6824 1.4393 0.0000
vt 1.6825 1.4976 0.0000
vt 0.7952 0.9460 0.0000
vt 0.8062 0.8869 0.0000
vt 1.7668 0.3209 0.0000
vt 1.6651 0.1288 0.0000
vt 1.6613 0.3217 0.0000
vt 1.7405 1.4382 0.0000
vt 1.6823 1.4101 0.0000
vt 1.7721 0.1257 0.0000
vt 1.7971 1.4373 0.0000
vt 1.7415 1.4086 0.0000
vt 1.7985 1.4074 0.0000
vt 1.6822 1.3809 0.0000
vt 1.7425 1.3791 0.0000
vt 0.8885 0.9450 0.0000
vt 0.9059 0.8860 0.0000
vt 1.8722 0.3200 0.0000
vt 1.8899 0.1226 0.0000
vt 1.6820 1.3225 0.0000
vt 1.7446 1.3199 0.0000
vt 1.7999 1.3774 0.0000
vt 1.8028 1.3176 0.0000
vt 1.8595 1.3399 0.0000
vt 1.8609 1.3153 0.0000
vt 1.8624 1.3881 0.0000
vt 1.8596 1.4363 0.0000
vt -0.6169 1.0297 0.0000
vt -0.6584 1.3971 0.0000
vt -0.5971 1.2445 0.0000
vt -0.8867 1.3517 0.0000
vt -0.8874 0.9912 0.0000
vt 1.8654 0.6148 0.0000
vt 1.6529 0.4261 0.0000
vt 1.6556 0.6046 0.0000
vt 1.8632 0.4181 0.0000
# 149 texture coords

g default
usemtl _doll1Material__25
s 1
f 1/1/1 2/2/2 3/3/3 
f 2/2/2 1/1/1 4/4/4 
f 5/5/5 4/4/4 1/1/1 
f 4/4/4 5/5/5 6/6/6 
f 7/7/7 6/6/6 5/5/5 
f 6/6/6 7/7/7 8/8/8 
f 9/9/9 7/7/7 5/5/5 
f 1/10/1 9/11/9 5/12/5 
f 7/7/7 9/9/9 10/13/10 
f 9/14/9 11/15/11 10/16/10 
f 11/15/11 9/14/9 12/17/12 
f 13/18/13 12/19/12 9/20/9 
f 9/11/9 1/10/1 13/21/13 
f 3/22/3 13/21/13 1/10/1 
f 12/19/12 13/18/13 14/23/14 
f 15/24/15 14/25/14 13/21/13 
f 13/21/13 3/22/3 15/24/15 
f 14/25/14 15/24/15 16/26/16 
f 17/27/17 15/24/15 3/22/3 
f 2/2/2 17/28/17 3/3/3 
f 15/24/15 17/27/17 18/29/18 
f 18/29/18 16/26/16 15/24/15 
f 12/17/12 19/30/19 11/15/11 
f 19/30/19 12/17/12 20/31/20 
f 14/23/14 20/32/20 12/19/12 
f 20/32/20 14/23/14 21/33/21 
f 22/34/22 18/29/18 17/27/17 
f 23/35/23 22/36/22 17/28/17 
f 22/36/22 23/35/23 24/37/24 
f 18/29/18 22/34/22 25/38/25 
f 25/38/25 26/39/26 18/29/18 
f 16/26/16 18/29/18 26/39/26 
f 26/39/26 25/38/25 27/40/27 
f 27/40/27 28/41/28 26/39/26 
f 28/41/28 16/26/16 26/39/26 
f 28/41/28 27/40/27 29/42/29 
f 16/26/16 28/41/28 30/43/30 
f 17/28/17 2/2/2 23/35/23 
f 14/25/14 30/43/30 21/44/21 
f 30/43/30 14/25/14 16/26/16 
f 31/45/31 11/46/11 32/47/32 
f 11/46/11 31/45/31 10/48/10 
f 32/49/32 33/50/33 31/51/31 
f 33/50/33 34/52/34 31/51/31 
f 34/52/34 33/50/33 35/53/35 
f 33/50/33 32/49/32 36/54/36 
f 7/55/7 31/56/31 34/57/34 
f 31/56/31 7/55/7 10/58/10 
f 7/55/7 34/57/34 8/59/8 
f 33/50/33 37/60/37 35/53/35 
f 37/60/37 33/50/33 36/54/36 
f 36/54/36 38/61/38 37/60/37 
f 38/61/38 36/54/36 39/62/39 
f 32/49/32 39/62/39 36/54/36 
f 40/63/40 38/61/38 39/62/39 
f 39/64/39 32/47/32 40/65/40 
f 11/46/11 40/65/40 32/47/32 
f 38/61/38 40/63/40 41/66/41 
f 19/67/19 41/68/41 40/65/40 
f 40/65/40 11/46/11 19/67/19 
f 41/68/41 19/67/19 42/69/42 
f 43/70/43 25/71/25 44/72/44 
f 25/71/25 43/70/43 27/73/27 
f 22/74/22 44/75/44 25/76/25 
f 44/75/44 22/74/22 24/77/24 
f 43/78/43 29/79/29 27/80/27 
f 29/79/29 43/78/43 45/81/45 
f 20/82/20 42/83/42 19/84/19 
f 42/83/42 20/82/20 46/85/46 
f 21/86/21 47/87/47 20/82/20 
f 47/87/47 48/88/48 49/89/49 
f 48/88/48 47/87/47 50/90/50 
f 50/90/50 51/91/51 48/88/48 
f 51/91/51 50/90/50 52/92/52 
f 52/92/52 53/93/53 51/91/51 
f 53/93/53 52/92/52 54/94/54 
f 49/89/49 51/91/51 53/93/53 
f 51/91/51 49/89/49 48/88/48 
f 55/95/55 52/92/52 50/90/50 
f 52/92/52 55/95/55 56/96/56 
f 55/95/55 57/97/57 56/96/56 
f 57/97/57 58/98/58 56/96/56 
f 57/97/57 55/95/55 59/99/59 
f 54/94/54 49/89/49 53/93/53 
f 49/89/49 54/94/54 47/87/47 
f 54/94/54 20/82/20 47/87/47 
f 60/100/60 61/101/61 57/97/57 
f 57/97/57 62/102/62 60/100/60 
f 62/102/62 57/97/57 59/99/59 
f 59/99/59 63/103/63 62/102/62 
f 63/103/63 59/99/59 64/104/64 
f 64/104/64 65/105/65 63/103/63 
f 60/100/60 63/103/63 65/105/65 
f 65/105/65 64/104/64 61/101/61 
f 64/104/64 29/106/29 61/101/61 
f 64/104/64 28/107/28 29/106/29 
f 61/101/61 29/106/29 45/108/45 
f 61/101/61 45/108/45 66/109/66 
f 61/101/61 60/100/60 65/105/65 
f 63/103/63 60/100/60 62/102/62 
f 66/109/66 57/97/57 61/101/61 
f 57/97/57 66/109/66 58/98/58 
f 28/107/28 64/104/64 59/99/59 
f 59/99/59 30/110/30 28/107/28 
f 30/110/30 59/99/59 55/95/55 
f 55/95/55 21/86/21 30/110/30 
f 47/87/47 21/86/21 50/90/50 
f 54/94/54 46/85/46 20/82/20 
f 54/94/54 67/111/67 46/85/46 
f 67/111/67 52/92/52 68/112/68 
f 52/92/52 56/96/56 68/112/68 
f 52/92/52 67/111/67 54/94/54 
f 21/86/21 55/95/55 50/90/50 
f 69/1/69 2/2/2 4/4/4 
f 2/2/2 69/1/69 70/3/70 
f 4/4/4 71/5/71 69/1/69 
f 71/5/71 4/4/4 6/6/6 
f 6/6/6 72/7/72 71/5/71 
f 72/7/72 6/6/6 8/8/8 
f 72/7/72 73/9/73 71/5/71 
f 73/113/73 69/114/69 71/115/71 
f 73/9/73 72/7/72 74/13/74 
f 75/116/75 73/9/73 74/13/74 
f 73/9/73 75/116/75 76/117/76 
f 76/118/76 77/119/77 73/120/73 
f 69/114/69 73/113/73 77/121/77 
f 77/121/77 70/122/70 69/114/69 
f 77/119/77 76/118/76 78/123/78 
f 78/124/78 79/125/79 77/121/77 
f 70/122/70 77/121/77 79/125/79 
f 79/125/79 78/124/78 80/126/80 
f 79/125/79 81/127/81 70/122/70 
f 81/28/81 2/2/2 70/3/70 
f 81/127/81 79/125/79 82/128/82 
f 80/126/80 82/128/82 79/125/79 
f 83/129/83 76/117/76 75/116/75 
f 76/117/76 83/129/83 84/130/84 
f 84/131/84 78/123/78 76/118/76 
f 78/123/78 84/131/84 85/132/85 
f 82/128/82 86/133/86 81/127/81 
f 86/36/86 23/35/23 81/28/81 
f 23/35/23 86/36/86 24/37/24 
f 86/133/86 82/128/82 87/134/87 
f 88/135/88 87/134/87 82/128/82 
f 82/128/82 80/126/80 88/135/88 
f 87/134/87 88/135/88 89/136/89 
f 90/137/90 89/136/89 88/135/88 
f 80/126/80 90/137/90 88/135/88 
f 89/136/89 90/137/90 91/138/91 
f 90/137/90 80/126/80 92/139/92 
f 2/2/2 81/28/81 23/35/23 
f 78/124/78 92/139/92 80/126/80 
f 92/139/92 78/124/78 85/140/85 
f 93/45/93 75/46/75 74/48/74 
f 75/46/75 93/45/93 94/47/94 
f 95/50/95 94/49/94 93/51/93 
f 34/52/34 95/50/95 93/51/93 
f 95/50/95 34/52/34 35/53/35 
f 94/49/94 95/50/95 96/54/96 
f 72/141/72 93/142/93 74/143/74 
f 93/142/93 72/141/72 34/144/34 
f 72/141/72 8/145/8 34/144/34 
f 95/50/95 37/60/37 96/54/96 
f 37/60/37 95/50/95 35/53/35 
f 38/61/38 96/54/96 37/60/37 
f 96/54/96 38/61/38 97/62/97 
f 97/62/97 94/49/94 96/54/96 
f 38/61/38 98/63/98 97/62/97 
f 94/49/94 97/62/97 98/63/98 
f 98/65/98 75/46/75 94/47/94 
f 98/63/98 38/61/38 41/66/41 
f 41/68/41 83/67/83 98/65/98 
f 75/46/75 98/65/98 83/67/83 
f 83/67/83 41/68/41 42/69/42 
f 43/146/43 87/147/87 89/148/89 
f 87/147/87 43/146/43 44/149/44 
f 44/75/44 86/74/86 87/76/87 
f 86/74/86 44/75/44 24/77/24 
f 91/79/91 43/78/43 89/80/89 
f 43/78/43 91/79/91 45/81/45 
f 84/82/84 42/83/42 46/85/46 
f 42/83/42 84/82/84 83/84/83 
f 99/87/99 85/86/85 84/82/84 
f 99/87/99 100/88/100 101/90/101 
f 100/88/100 99/87/99 102/89/102 
f 101/90/101 103/91/103 104/92/104 
f 103/91/103 101/90/101 100/88/100 
f 105/93/105 104/92/104 103/91/103 
f 104/92/104 105/93/105 106/94/106 
f 102/89/102 103/91/103 100/88/100 
f 103/91/103 102/89/102 105/93/105 
f 104/92/104 107/95/107 101/90/101 
f 107/95/107 104/92/104 56/96/56 
f 108/97/108 107/95/107 56/96/56 
f 108/97/108 56/96/56 58/98/58 
f 107/95/107 108/97/108 109/99/109 
f 106/94/106 102/89/102 99/87/99 
f 102/89/102 106/94/106 105/93/105 
f 106/94/106 99/87/99 84/82/84 
f 110/101/110 111/100/111 108/97/108 
f 108/97/108 112/102/112 109/99/109 
f 112/102/112 108/97/108 111/100/111 
f 109/99/109 113/103/113 114/104/114 
f 115/105/115 114/104/114 113/103/113 
f 113/103/113 111/100/111 115/105/115 
f 114/104/114 115/105/115 110/101/110 
f 114/104/114 110/101/110 91/106/91 
f 90/107/90 114/104/114 91/106/91 
f 91/106/91 110/101/110 45/108/45 
f 45/108/45 110/101/110 66/109/66 
f 111/100/111 110/101/110 115/105/115 
f 111/100/111 113/103/113 112/102/112 
f 113/103/113 109/99/109 112/102/112 
f 108/97/108 66/109/66 110/101/110 
f 66/109/66 108/97/108 58/98/58 
f 114/104/114 90/107/90 109/99/109 
f 92/110/92 109/99/109 90/107/90 
f 109/99/109 92/110/92 107/95/107 
f 85/86/85 107/95/107 92/110/92 
f 85/86/85 99/87/99 101/90/101 
f 106/94/106 46/85/46 67/111/67 
f 67/111/67 104/92/104 106/94/106 
f 104/92/104 67/111/67 68/112/68 
f 104/92/104 68/112/68 56/96/56 
f 106/94/106 84/82/84 46/85/46 
f 107/95/107 85/86/85 101/90/101 
# 226 faces

