# 3ds Max Wavefront OBJ Exporter v0.97b - (c)2007 guruware
# 创建的文件:05.09.2015 20:07:48

mtllib dollbox.mtl

#
# object default
#

v  -2.5885 4.5500 3.0879
v  -2.6235 4.5500 2.9479
v  -2.7635 4.5500 2.9129
v  2.5900 4.5500 3.0879
v  2.6250 4.5500 2.9479
v  2.7650 4.5500 2.9129
v  2.7650 4.5500 -2.9129
v  2.6250 4.5500 -2.9479
v  2.5900 4.5500 -3.0879
v  -2.5900 4.5500 -3.0879
v  -2.6250 4.5500 -2.9479
v  -2.7650 4.5500 -2.9129
v  2.5508 4.5500 2.8737
v  2.5508 4.5500 0.7453
v  0.4224 4.5500 0.7453
v  0.4224 4.5500 2.8737
v  2.6677 -0.0000 3.1724
v  -2.6677 4.4800 3.1724
v  -2.6677 -0.0000 3.1724
v  2.6677 4.4800 3.1724
v  -2.8479 4.4800 2.9922
v  -2.8479 -0.0000 2.9922
v  -2.8479 4.4800 -2.9921
v  -2.8479 -0.0000 -2.9921
v  2.8479 -0.0000 2.9922
v  2.8479 4.4800 2.9922
v  2.8479 -0.0000 -2.9921
v  2.8479 4.4800 -2.9921
v  -2.6677 4.4800 -3.1724
v  -2.6677 -0.0000 -3.1724
v  2.6677 4.4800 -3.1724
v  2.6677 -0.0000 -3.1724
v  -2.2735 11.7250 3.0879
v  -2.5885 11.7250 3.0879
v  -2.2735 4.5500 3.0879
v  -2.7635 11.7250 2.9129
v  -2.7635 4.5500 2.5979
v  -2.7635 11.7250 2.5979
v  -2.6235 4.5500 2.5979
v  -2.6235 11.7250 2.5979
v  -2.6235 11.7250 2.9479
v  -2.2735 4.5500 2.9479
v  -2.2735 11.7250 2.9479
v  2.7650 11.7250 2.5979
v  2.7650 11.7250 2.9129
v  2.7650 4.5500 2.5979
v  2.5900 11.7250 3.0879
v  2.2750 4.5500 3.0879
v  2.2750 11.7250 3.0879
v  2.2750 4.5500 2.9479
v  2.2750 11.7250 2.9479
v  2.6250 11.7250 2.9479
v  2.6250 4.5500 2.5979
v  2.6250 11.7250 2.5979
v  2.7650 11.7250 -2.5979
v  2.7650 4.5500 -2.5979
v  2.7650 11.7250 -2.9129
v  2.5900 11.7250 -3.0879
v  2.6250 4.5500 -2.5979
v  2.6250 11.7250 -2.9479
v  2.6250 11.7250 -2.5979
v  -2.5900 11.7250 -3.0879
v  -2.7650 4.5500 -2.5979
v  -2.7650 11.7250 -2.9129
v  -2.7650 11.7250 -2.5979
v  -2.6250 4.5500 -2.5979
v  -2.6250 11.7250 -2.5979
v  -2.6250 11.7250 -2.9479
v  2.0908 13.5100 2.6677
v  -2.3432 13.5100 2.4153
v  -2.0908 13.5100 2.6677
v  -2.0908 13.5100 -2.6677
v  -2.3432 13.5100 -2.4153
v  2.3432 13.5100 -2.4153
v  2.0908 13.5100 -2.6677
v  2.3432 13.5100 2.4153
v  -2.3881 13.4556 2.9481
v  2.3881 13.4556 2.9481
v  -2.6236 13.4556 -2.7125
v  -2.6236 13.4556 2.7125
v  2.3881 13.4556 -2.9481
v  -2.3881 13.4556 -2.9481
v  2.6236 13.4556 2.7125
v  2.6236 13.4556 -2.7125
v  -2.5913 13.2922 3.1163
v  2.5913 13.2922 3.1163
v  -2.7919 13.2922 -2.9158
v  -2.7919 13.2922 2.9158
v  2.5913 13.2922 -3.1163
v  -2.5913 13.2922 -3.1163
v  2.7919 13.2922 2.9158
v  2.7919 13.2922 -2.9158
v  2.6676 11.6511 3.1724
v  -2.6660 13.0200 3.1724
v  -2.6676 11.6511 3.1724
v  2.6660 13.0200 3.1724
v  -2.8479 13.0200 2.9904
v  -2.8479 11.6511 2.9921
v  -2.8479 13.0200 -2.9904
v  -2.8479 11.6511 -2.9921
v  2.8479 11.6511 2.9921
v  2.8479 13.0200 2.9904
v  2.8479 11.6511 -2.9921
v  2.8479 13.0200 -2.9904
v  -2.6660 13.0200 -3.1724
v  -2.6676 11.6511 -3.1724
v  2.6660 13.0200 -3.1724
v  2.6676 11.6511 -3.1724
v  2.7891 11.7250 2.9303
v  2.7891 11.7250 -2.9303
v  2.6150 11.7250 -3.1098
v  -2.6150 11.7250 -3.1098
v  -2.7891 11.7250 -2.9303
v  -2.7891 11.7250 2.9303
v  -2.6150 11.7250 3.1098
v  2.6150 11.7250 3.1098
v  0.0000 11.7250 0.0000
v  0.4224 -0.0000 0.7453
v  2.5508 -0.0000 2.8737
v  2.5508 -0.0000 0.7453
v  0.4224 -0.0000 2.8737
# 121 vertices

vn -0.1034 0.9312 0.3496
vn 0.0000 1.0000 -0.0000
vn -0.3496 0.9312 0.1034
vn 0.1047 0.9309 0.3500
vn 0.3536 0.9296 0.1038
vn 0.3536 0.9296 -0.1038
vn 0.1047 0.9309 -0.3500
vn -0.1047 0.9309 -0.3500
vn -0.3537 0.9296 -0.1038
vn 0.3827 0.0000 0.9239
vn -0.3598 0.4335 0.8262
vn -0.3827 0.0000 0.9239
vn 0.3596 0.4324 0.8269
vn -0.8262 0.4335 0.3598
vn -0.9239 0.0000 0.3827
vn -0.8269 0.4314 -0.3606
vn -0.9239 0.0000 -0.3827
vn 0.9239 0.0000 0.3827
vn 0.8269 0.4314 0.3606
vn 0.9239 0.0000 -0.3827
vn 0.8269 0.4314 -0.3606
vn -0.3596 0.4324 -0.8269
vn -0.3827 0.0000 -0.9239
vn 0.3596 0.4324 -0.8269
vn 0.3827 0.0000 -0.9239
vn 0.0000 0.0000 1.0000
vn -1.0000 0.0000 -0.0000
vn 0.0000 0.0000 -1.0000
vn 1.0000 0.0000 -0.0000
vn -0.0000 0.0000 1.0000
vn 0.0237 0.9949 0.0983
vn -0.0983 0.9949 0.0237
vn -0.0237 0.9949 0.0983
vn -0.0237 0.9949 -0.0983
vn -0.0983 0.9949 -0.0237
vn 0.0983 0.9949 -0.0237
vn 0.0237 0.9949 -0.0983
vn 0.0983 0.9949 0.0237
vn -0.1244 0.8954 0.4274
vn 0.1244 0.8954 0.4274
vn -0.4274 0.8954 -0.1244
vn -0.4274 0.8954 0.1244
vn 0.1244 0.8954 -0.4274
vn -0.1244 0.8954 -0.4274
vn 0.4274 0.8954 0.1244
vn 0.4274 0.8954 -0.1244
vn -0.3170 0.5435 0.7772
vn 0.3170 0.5435 0.7772
vn -0.7772 0.5435 -0.3170
vn -0.7772 0.5435 0.3170
vn 0.3170 0.5435 -0.7772
vn -0.3170 0.5435 -0.7772
vn 0.7772 0.5435 0.3170
vn 0.7772 0.5435 -0.3170
vn 0.1791 -0.8338 0.5221
vn -0.3944 0.1375 0.9086
vn -0.1766 -0.8324 0.5253
vn 0.3944 0.1375 0.9086
vn -0.9086 0.1375 0.3944
vn -0.5288 -0.8319 0.1682
vn -0.9086 0.1375 -0.3944
vn -0.5255 -0.8335 -0.1707
vn 0.5255 -0.8335 0.1707
vn 0.9086 0.1375 0.3944
vn 0.5288 -0.8319 -0.1682
vn 0.9086 0.1375 -0.3944
vn -0.3944 0.1375 -0.9086
vn -0.1791 -0.8338 -0.5221
vn 0.3944 0.1375 -0.9086
vn 0.1766 -0.8324 -0.5253
vn -0.6885 -0.6964 -0.2025
vn -0.6883 -0.6955 0.2064
vn -0.2274 -0.7076 0.6690
vn 0.2230 -0.7088 0.6692
vn 0.6885 -0.6964 0.2025
vn 0.6883 -0.6955 -0.2064
vn 0.2274 -0.7076 -0.6690
vn -0.2230 -0.7088 -0.6692
vn 0.0000 -1.0000 -0.0000
# 79 vertex normals

vt 0.9907 0.2883 0.0000
vt 0.9915 0.2914 0.0000
vt 0.9946 0.2922 0.0000
vt 0.8740 0.2883 0.0000
vt 0.8732 0.2914 0.0000
vt 0.8701 0.2922 0.0000
vt 0.8701 0.4234 0.0000
vt 0.8732 0.4242 0.0000
vt 0.8740 0.4274 0.0000
vt 0.9907 0.4274 0.0000
vt 0.9915 0.4242 0.0000
vt 0.9947 0.4234 0.0000
vt 0.8749 0.2931 0.0000
vt 0.8749 0.3410 0.0000
vt 0.9229 0.3410 0.0000
vt 0.9229 0.2931 0.0000
vt 0.2673 -0.0000 0.0000
vt 0.4941 0.1961 0.0000
vt 0.4941 -0.0000 0.0000
vt 0.2673 0.1961 0.0000
vt 0.5018 0.1961 0.0000
vt 0.5018 -0.0000 0.0000
vt 0.7561 0.1961 0.0000
vt 0.7561 -0.0000 0.0000
vt 0.2597 -0.0000 0.0000
vt 0.2597 0.1961 0.0000
vt 0.0053 0.0000 0.0000
vt 0.0053 0.1961 0.0000
vt 0.7638 0.1961 0.0000
vt 0.7638 -0.0000 0.0000
vt 0.9905 0.1961 0.0000
vt 0.9905 -0.0000 0.0000
vt 0.9982 0.1961 0.0000
vt 0.9982 -0.0000 0.0000
vt 0.5051 0.1997 0.0000
vt 0.7527 0.1997 0.0000
vt 0.7671 0.1997 0.0000
vt 0.9872 0.1997 0.0000
vt 0.0087 0.1997 0.0000
vt 0.2563 0.1997 0.0000
vt 0.2706 0.1997 0.0000
vt 0.4907 0.1997 0.0000
vt 1.0009 0.1996 0.0000
vt 0.5832 0.3661 0.0000
vt 0.5566 0.9918 0.0000
vt 0.5832 0.9918 0.0000
vt 0.5566 0.3661 0.0000
vt 0.5980 0.9918 0.0000
vt 0.5980 0.3661 0.0000
vt 0.6247 0.3661 0.0000
vt 0.6247 0.9918 0.0000
vt 0.8360 0.5335 0.0000
vt 0.8324 0.7232 0.0000
vt 0.8360 0.7232 0.0000
vt 0.8324 0.5335 0.0000
vt 0.8450 0.5335 0.0000
vt 0.8450 0.7232 0.0000
vt 0.8540 0.5335 0.0000
vt 0.8540 0.7232 0.0000
vt 0.8576 0.5335 0.0000
vt 0.8576 0.7232 0.0000
vt 0.4996 0.3661 0.0000
vt 0.4729 0.9918 0.0000
vt 0.4996 0.9918 0.0000
vt 0.4729 0.3661 0.0000
vt 0.5144 0.9918 0.0000
vt 0.5144 0.3661 0.0000
vt 0.5411 0.3661 0.0000
vt 0.5411 0.9918 0.0000
vt 0.7995 0.5335 0.0000
vt 0.7959 0.7232 0.0000
vt 0.7995 0.7232 0.0000
vt 0.7959 0.5335 0.0000
vt 0.8085 0.5335 0.0000
vt 0.8085 0.7232 0.0000
vt 0.8175 0.5335 0.0000
vt 0.8175 0.7232 0.0000
vt 0.8211 0.5335 0.0000
vt 0.8211 0.7232 0.0000
vt 0.6721 0.3605 0.0000
vt 0.6990 0.9918 0.0000
vt 0.6990 0.3605 0.0000
vt 0.6720 0.9918 0.0000
vt 0.6571 0.9918 0.0000
vt 0.6571 0.3605 0.0000
vt 0.8452 0.3332 0.0000
vt 0.8542 0.5230 0.0000
vt 0.8542 0.3332 0.0000
vt 0.8452 0.5230 0.0000
vt 0.8416 0.3332 0.0000
vt 0.8416 0.5230 0.0000
vt 0.9937 0.9906 0.0000
vt 0.8134 0.7333 0.0000
vt 0.8134 0.9906 0.0000
vt 0.9937 0.7333 0.0000
vt 0.7294 0.3605 0.0000
vt 0.7563 0.9918 0.0000
vt 0.7563 0.3605 0.0000
vt 0.7294 0.9918 0.0000
vt 0.7713 0.3605 0.0000
vt 0.7713 0.9918 0.0000
vt 0.8310 0.3313 0.0000
vt 0.8346 0.5210 0.0000
vt 0.8346 0.3313 0.0000
vt 0.8310 0.5210 0.0000
vt 0.8220 0.3313 0.0000
vt 0.8220 0.5210 0.0000
vt 0.0082 0.9918 0.0000
vt 0.4543 0.3639 0.0000
vt 0.4543 0.9918 0.0000
vt 0.0082 0.3639 0.0000
vt 0.8859 0.4404 0.0000
vt 0.9858 0.4461 0.0000
vt 0.9801 0.4404 0.0000
vt 0.9801 0.5606 0.0000
vt 0.9858 0.5549 0.0000
vt 0.8802 0.5549 0.0000
vt 0.8859 0.5606 0.0000
vt 0.8802 0.4461 0.0000
vt 0.9868 0.4341 0.0000
vt 0.8792 0.4341 0.0000
vt 0.9921 0.5616 0.0000
vt 0.9921 0.4394 0.0000
vt 0.8792 0.5669 0.0000
vt 0.9868 0.5669 0.0000
vt 0.8739 0.4394 0.0000
vt 0.8739 0.5616 0.0000
vt 0.9914 0.4303 0.0000
vt 0.8747 0.4303 0.0000
vt 0.9959 0.5662 0.0000
vt 0.9959 0.4348 0.0000
vt 0.8747 0.5707 0.0000
vt 0.9914 0.5707 0.0000
vt 0.8701 0.4348 0.0000
vt 0.8701 0.5662 0.0000
vt 0.2686 0.2027 0.0000
vt 0.4909 0.2683 0.0000
vt 0.4910 0.2027 0.0000
vt 0.2686 0.2683 0.0000
vt 0.2705 0.2800 0.0000
vt 0.4891 0.2800 0.0000
vt 0.5017 0.2683 0.0000
vt 0.5016 0.2027 0.0000
vt 0.7510 0.2683 0.0000
vt 0.7511 0.2027 0.0000
vt 0.5035 0.2800 0.0000
vt 0.7492 0.2800 0.0000
vt 0.2579 0.2027 0.0000
vt 0.2579 0.2683 0.0000
vt 0.0084 0.2027 0.0000
vt 0.0085 0.2683 0.0000
vt 0.0116 0.2800 0.0000
vt 0.2561 0.2800 0.0000
vt 0.7618 0.2683 0.0000
vt 0.7617 0.2028 0.0000
vt 0.9841 0.2683 0.0000
vt 0.9842 0.2028 0.0000
vt 0.7636 0.2800 0.0000
vt 0.9823 0.2800 0.0000
vt 0.9948 0.2683 0.0000
vt 0.9948 0.2028 0.0000
vt 0.9954 0.2800 0.0000
vt 0.2554 0.2002 0.0000
vt 0.0110 0.2002 0.0000
vt 0.9820 0.2001 0.0000
vt 0.7639 0.2001 0.0000
vt 0.7485 0.2002 0.0000
vt 0.5042 0.2002 0.0000
vt 0.4888 0.2001 0.0000
vt 0.2707 0.2001 0.0000
vt 0.9962 0.5806 0.0000
vt 0.9909 0.5780 0.0000
vt 0.9949 0.5820 0.0000
vt 0.9921 0.5766 0.0000
vt 0.8719 0.5766 0.0000
vt 0.8692 0.5820 0.0000
vt 0.8731 0.5780 0.0000
vt 0.8679 0.5806 0.0000
vt 0.9921 0.7195 0.0000
vt 0.9949 0.7140 0.0000
vt 0.9909 0.7181 0.0000
vt 0.9962 0.7154 0.0000
vt 0.8679 0.7154 0.0000
vt 0.8731 0.7181 0.0000
vt 0.8692 0.7140 0.0000
vt 0.8719 0.7195 0.0000
vt 0.9320 0.6480 0.0000
vt 0.8132 0.3257 0.0000
vt 0.7972 0.3417 0.0000
vt 0.7972 0.3257 0.0000
vt 0.8132 0.3417 0.0000
vt 0.8132 0.2905 0.0000
vt 0.7972 0.2905 0.0000
vt 0.7812 0.3257 0.0000
vt 0.7812 0.2905 0.0000
vt 0.8452 0.2905 0.0000
vt 0.8292 0.3257 0.0000
vt 0.8292 0.2905 0.0000
vt 0.8452 0.3257 0.0000
# 199 texture coords

g default
usemtl Material__25
s 1
f 1/1/1 2/2/2 3/3/3 
f 4/4/4 2/2/2 1/1/1 
f 2/2/2 4/4/4 5/5/2 
f 6/6/5 5/5/2 4/4/4 
f 7/7/6 5/5/2 6/6/5 
f 5/5/2 7/7/6 8/8/2 
f 8/8/2 7/7/6 9/9/7 
f 10/10/8 8/8/2 9/9/7 
f 8/8/2 10/10/8 11/11/2 
f 12/12/9 11/11/2 10/10/8 
f 2/2/2 12/12/9 3/3/3 
f 12/12/9 2/2/2 11/11/2 
f 8/8/2 13/13/2 5/5/2 
f 8/8/2 14/14/2 13/13/2 
f 8/8/2 15/15/2 14/14/2 
f 11/11/2 15/15/2 8/8/2 
f 2/2/2 15/15/2 11/11/2 
f 2/2/2 16/16/2 15/15/2 
f 5/5/2 16/16/2 2/2/2 
f 13/13/2 16/16/2 5/5/2 
f 17/17/10 18/18/11 19/19/12 
f 18/18/11 17/17/10 20/20/13 
f 21/21/14 19/19/12 18/18/11 
f 19/19/12 21/21/14 22/22/15 
f 23/23/16 22/22/15 21/21/14 
f 22/22/15 23/23/16 24/24/17 
f 25/25/18 20/20/13 17/17/10 
f 20/20/13 25/25/18 26/26/19 
f 27/27/20 26/26/19 25/25/18 
f 26/26/19 27/27/20 28/28/21 
f 29/29/22 24/24/17 23/23/16 
f 24/24/17 29/29/22 30/30/23 
f 31/31/24 30/30/23 29/29/22 
f 30/30/23 31/31/24 32/32/25 
f 28/33/21 32/32/25 31/31/24 
f 32/32/25 28/33/21 27/34/20 
f 3/35/3 23/23/16 21/21/14 
f 23/23/16 3/35/3 12/36/9 
f 12/36/9 29/29/22 23/23/16 
f 10/37/8 31/31/24 29/29/22 
f 29/29/22 12/36/9 10/37/8 
f 31/31/24 10/37/8 9/38/7 
f 9/38/7 28/33/21 31/31/24 
f 7/39/6 26/26/19 28/28/21 
f 26/26/19 7/39/6 6/40/5 
f 6/40/5 20/20/13 26/26/19 
f 20/20/13 6/40/5 4/41/4 
f 4/41/4 18/18/11 20/20/13 
f 18/18/11 4/41/4 1/42/1 
f 21/21/14 1/42/1 3/35/3 
f 1/42/1 21/21/14 18/18/11 
f 28/33/21 9/38/7 7/43/6 
f 1/44/12 33/45/26 34/46/12 
f 33/45/26 1/44/12 35/47/26 
f 36/48/15 1/44/12 34/46/12 
f 1/44/12 36/48/15 3/49/15 
f 36/48/15 37/50/27 3/49/15 
f 37/50/27 36/48/15 38/51/27 
f 39/52/28 38/53/28 40/54/28 
f 38/53/28 39/52/28 37/55/28 
f 2/56/29 40/54/29 41/57/29 
f 40/54/29 2/56/29 39/52/29 
f 42/58/28 41/57/28 43/59/28 
f 41/57/28 42/58/28 2/56/28 
f 35/60/29 43/59/29 33/61/29 
f 43/59/29 35/60/29 42/58/29 
f 6/62/18 44/63/29 45/64/18 
f 44/63/29 6/62/18 46/65/29 
f 47/66/10 6/62/18 45/64/18 
f 6/62/18 47/66/10 4/67/10 
f 47/66/10 48/68/30 4/67/10 
f 48/68/30 47/66/10 49/69/30 
f 50/70/27 49/71/27 51/72/27 
f 49/71/27 50/70/27 48/73/27 
f 5/74/28 51/72/28 52/75/28 
f 51/72/28 5/74/28 50/70/28 
f 53/76/27 52/75/27 54/77/27 
f 52/75/27 53/76/27 5/74/27 
f 46/78/28 54/77/28 44/79/28 
f 54/77/28 46/78/28 53/76/28 
f 7/80/20 55/81/29 56/82/29 
f 55/81/29 7/80/20 57/83/20 
f 7/80/20 58/84/25 57/83/20 
f 58/84/25 7/80/20 9/85/25 
f 59/86/27 60/87/27 8/88/27 
f 60/87/27 59/86/27 61/89/27 
f 56/90/26 61/89/26 59/86/26 
f 61/89/26 56/90/26 55/91/26 
f 58/92/25 10/93/23 62/94/23 
f 10/93/23 58/92/25 9/95/25 
f 63/96/27 64/97/17 12/98/17 
f 64/97/17 63/96/27 65/99/27 
f 64/97/17 10/100/23 12/98/17 
f 10/100/23 64/97/17 62/101/23 
f 66/102/26 65/103/26 63/104/26 
f 65/103/26 66/102/26 67/105/26 
f 11/106/29 67/105/29 66/102/29 
f 67/105/29 11/106/29 68/107/29 
f 68/108/26 8/109/26 60/110/26 
f 8/109/26 68/108/26 11/111/26 
f 69/112/31 70/113/32 71/114/33 
f 69/112/31 72/115/34 70/113/32 
f 70/113/32 72/115/34 73/116/35 
f 69/112/31 74/117/36 72/115/34 
f 72/115/34 74/117/36 75/118/37 
f 76/119/38 74/117/36 69/112/31 
f 77/120/39 69/112/31 71/114/33 
f 70/113/32 77/120/39 71/114/33 
f 69/112/31 77/120/39 78/121/40 
f 79/122/41 70/113/32 73/116/35 
f 72/115/34 79/122/41 73/116/35 
f 70/113/32 79/122/41 80/123/42 
f 77/120/39 70/113/32 80/123/42 
f 81/124/43 72/115/34 75/118/37 
f 74/117/36 81/124/43 75/118/37 
f 72/115/34 81/124/43 82/125/44 
f 79/122/41 72/115/34 82/125/44 
f 83/126/45 74/117/36 76/119/38 
f 69/112/31 83/126/45 76/119/38 
f 83/126/45 69/112/31 78/121/40 
f 74/117/36 83/126/45 84/127/46 
f 81/124/43 74/117/36 84/127/46 
f 85/128/47 78/121/40 77/120/39 
f 80/123/42 85/128/47 77/120/39 
f 78/121/40 85/128/47 86/129/48 
f 87/130/49 80/123/42 79/122/41 
f 82/125/44 87/130/49 79/122/41 
f 80/123/42 87/130/49 88/131/50 
f 85/128/47 80/123/42 88/131/50 
f 89/132/51 82/125/44 81/124/43 
f 84/127/46 89/132/51 81/124/43 
f 82/125/44 89/132/51 90/133/52 
f 87/130/49 82/125/44 90/133/52 
f 91/134/53 84/127/46 83/126/45 
f 78/121/40 91/134/53 83/126/45 
f 91/134/53 78/121/40 86/129/48 
f 84/127/46 91/134/53 92/135/54 
f 89/132/51 84/127/46 92/135/54 
f 93/136/55 94/137/56 95/138/57 
f 94/137/56 93/136/55 96/139/58 
f 86/140/48 94/137/56 96/139/58 
f 94/137/56 86/140/48 85/141/47 
f 97/142/59 95/138/57 94/137/56 
f 95/138/57 97/142/59 98/143/60 
f 99/144/61 98/143/60 97/142/59 
f 98/143/60 99/144/61 100/145/62 
f 88/146/50 99/144/61 97/142/59 
f 88/146/50 94/137/56 85/141/47 
f 94/137/56 88/146/50 97/142/59 
f 99/144/61 88/146/50 87/147/49 
f 101/148/63 96/139/58 93/136/55 
f 96/139/58 101/148/63 102/149/64 
f 102/149/64 86/140/48 96/139/58 
f 103/150/65 102/149/64 101/148/63 
f 102/149/64 103/150/65 104/151/66 
f 92/152/54 102/149/64 104/151/66 
f 102/149/64 92/152/54 91/153/53 
f 86/140/48 102/149/64 91/153/53 
f 105/154/67 100/145/62 99/144/61 
f 100/145/62 105/154/67 106/155/68 
f 107/156/69 106/155/68 105/154/67 
f 106/155/68 107/156/69 108/157/70 
f 90/158/52 107/156/69 105/154/67 
f 90/158/52 99/144/61 87/147/49 
f 99/144/61 90/158/52 105/154/67 
f 107/156/69 90/158/52 89/159/51 
f 104/160/66 108/157/70 107/156/69 
f 108/157/70 104/160/66 103/161/65 
f 92/162/54 107/156/69 89/159/51 
f 107/156/69 92/162/54 104/160/66 
f 109/163/71 103/150/65 101/148/63 
f 103/150/65 109/163/71 110/164/72 
f 111/165/73 106/155/68 108/157/70 
f 106/155/68 111/165/73 112/166/74 
f 113/167/75 98/143/60 100/145/62 
f 98/143/60 113/167/75 114/168/76 
f 115/169/77 93/136/55 95/138/57 
f 93/136/55 115/169/77 116/170/78 
f 101/171/63 116/172/78 109/173/71 
f 116/172/78 101/171/63 93/174/55 
f 95/175/57 114/176/76 115/177/77 
f 114/176/76 95/175/57 98/178/60 
f 108/179/70 110/180/72 111/181/73 
f 110/180/72 108/179/70 103/182/65 
f 100/183/62 112/184/74 113/185/75 
f 112/184/74 100/183/62 106/186/68 
f 110/180/79 117/187/79 111/181/79 
f 111/181/79 117/187/79 112/184/79 
f 112/184/79 117/187/79 113/185/79 
f 113/185/79 117/187/79 114/176/79 
f 114/176/79 117/187/79 115/177/79 
f 115/177/79 117/187/79 116/172/79 
f 116/172/79 117/187/79 109/173/79 
f 109/173/79 117/187/79 110/180/79 
f 118/188/2 119/189/2 120/190/2 
f 119/189/2 118/188/2 121/191/2 
f 15/192/26 120/190/26 14/193/26 
f 120/190/26 15/192/26 118/188/26 
f 14/193/27 119/194/27 13/195/27 
f 119/194/27 14/193/27 120/190/27 
f 13/196/28 121/197/28 16/198/28 
f 121/197/28 13/196/28 119/199/28 
f 16/198/29 118/188/29 15/192/29 
f 118/188/29 16/198/29 121/197/29 
# 204 faces

