# 3ds Max Wavefront OBJ Exporter v0.97b - (c)2007 guruware
# 创建的文件:26.09.2015 16:19:24

mtllib ganbox.mtl

#
# object default
#

v  0.4500 -0.3000 0.4500
v  -0.4500 -0.3000 -0.4500
v  0.4500 -0.3000 -0.4500
v  -0.4500 -0.3000 0.4500
v  0.4500 0.3000 0.4500
v  -0.4500 0.3000 -0.4500
v  -0.4500 0.3000 0.4500
v  0.4500 0.3000 -0.4500
# 8 vertices

vn 0.0000 -1.0000 -0.0000
vn 0.0000 1.0000 -0.0000
vn 0.0000 0.0000 1.0000
vn -1.0000 0.0000 -0.0000
vn 0.0000 0.0000 -1.0000
vn 1.0000 0.0000 -0.0000
# 6 vertex normals

vt 1.7096 0.3026 0.0000
vt 1.3142 0.6897 0.0000
vt 1.7096 0.6897 0.0000
vt 1.3142 0.3026 0.0000
vt 0.7104 0.6941 0.0000
vt 0.3109 0.2987 0.0000
vt 0.3109 0.6941 0.0000
vt 0.7104 0.2987 0.0000
vt -0.3012 0.2840 0.0000
vt -0.6821 0.0929 0.0000
vt -0.6821 0.2840 0.0000
vt -0.3012 0.0929 0.0000
vt 0.3005 0.2985 0.0000
vt 0.0970 0.6898 0.0000
vt 0.3005 0.6897 0.0000
vt 0.0970 0.2985 0.0000
vt 0.3026 0.7043 0.0000
vt 0.7001 0.9223 0.0000
vt 0.7001 0.7043 0.0000
vt 0.3026 0.9223 0.0000
vt 0.7166 0.6918 0.0000
vt 0.9118 0.3068 0.0000
vt 0.7166 0.3068 0.0000
vt 0.9118 0.6918 0.0000
# 24 texture coords

g default
usemtl _clawboxMaterial__25
s 1
f 1/1/1 2/2/1 3/3/1 
f 1/1/1 4/4/1 2/2/1 
f 5/5/2 6/6/2 7/7/2 
f 5/5/2 8/8/2 6/6/2 
f 1/9/3 7/10/3 4/11/3 
f 1/9/3 5/12/3 7/10/3 
f 4/13/4 6/14/4 2/15/4 
f 4/13/4 7/16/4 6/14/4 
f 2/17/5 8/18/5 3/19/5 
f 2/17/5 6/20/5 8/18/5 
f 3/21/6 5/22/6 1/23/6 
f 3/21/6 8/24/6 5/22/6 
# 12 faces

