# 3ds Max Wavefront OBJ Exporter v0.97b - (c)2007 guruware
# 创建的文件:05.09.2015 10:58:09

mtllib hole.mtl

#
# object default
#

v  16.2635 -0.0000 -16.2635
v  -16.2635 14.0000 -16.2635
v  16.2635 14.0000 -16.2635
v  -16.2635 0.0000 -16.2635
v  -15.2028 14.0000 -15.2028
v  15.2028 14.0000 -15.2028
v  -15.2028 14.0000 15.2028
v  -16.2635 14.0000 16.2635
v  16.2635 14.0000 16.2635
v  15.2028 14.0000 15.2028
v  -15.2028 0.0000 -15.2028
v  15.2028 -0.0000 -15.2028
v  15.2028 -0.0000 15.2028
v  16.2635 -0.0000 16.2635
v  -16.2635 0.0000 16.2635
v  -15.2028 0.0000 15.2028
# 16 vertices

vn 0.7071 -0.0000 -0.7071
vn -0.7071 0.0000 -0.7071
vn 0.0000 1.0000 -0.0000
vn -0.7071 0.0000 0.7071
vn 0.7071 0.0000 0.7071
vn -0.0000 -1.0000 0.0000
# 6 vertex normals

vt 0.0000 -0.0000 0.0000
vt 1.0000 1.0000 0.0000
vt 0.0000 1.0000 0.0000
vt 1.0000 0.0000 0.0000
vt 0.8910 1.0000 0.0000
vt 0.0326 1.0000 0.0000
vt 0.9182 1.0000 0.0000
vt 0.9674 1.0000 0.0000
vt 0.0818 1.0000 0.0000
vt 0.1090 1.0000 0.0000
vt 0.9674 0.0000 0.0000
vt 0.0326 -0.0000 0.0000
vt 0.9182 -0.0000 0.0000
vt 0.1090 -0.0000 0.0000
vt 0.0818 -0.0000 0.0000
vt 0.8910 -0.0000 0.0000
vt 0.0000 0.0000 0.0000
vt 0.0326 0.0000 0.0000
vt -0.0000 1.0000 0.0000
vt 1.0000 -0.0000 0.0000
vt 0.9674 -0.0000 0.0000
# 21 texture coords

g default
usemtl Material__25
s 1
f 1/1/1 2/2/2 3/3/1 
f 1/1/1 4/4/2 2/2/2 
f 3/3/3 5/5/3 6/6/3 
f 3/3/3 2/7/3 5/5/3 
f 2/7/3 7/8/3 5/5/3 
f 2/7/3 8/2/3 7/8/3 
f 9/9/3 3/3/3 6/6/3 
f 9/9/3 6/6/3 10/10/3 
f 6/6/4 11/11/5 12/12/4 
f 6/6/4 5/8/5 11/11/5 
f 12/12/6 4/13/6 1/1/6 
f 13/14/6 12/12/6 1/1/6 
f 13/14/6 1/1/6 14/15/6 
f 11/16/6 15/4/6 4/13/6 
f 16/11/6 14/15/6 15/4/6 
f 11/16/6 16/11/6 15/4/6 
f 12/12/6 11/16/6 4/13/6 
f 4/17/2 8/2/4 2/3/2 
f 4/17/2 15/4/4 8/2/4 
f 5/6/5 16/11/1 11/18/5 
f 5/6/5 7/8/1 16/11/1 
f 15/4/4 9/19/5 8/2/4 
f 15/4/4 14/1/5 9/19/5 
f 8/2/3 10/10/3 7/8/3 
f 8/2/3 9/9/3 10/10/3 
f 7/8/1 13/12/2 16/11/1 
f 7/8/1 10/6/2 13/12/2 
f 16/11/6 13/14/6 14/15/6 
f 14/20/5 3/3/1 9/2/5 
f 14/20/5 1/1/1 3/3/1 
f 10/8/2 12/12/4 13/21/2 
f 10/8/2 6/6/4 12/12/4 
# 32 faces

