# 3ds Max Wavefront OBJ Exporter v0.97b - (c)2007 guruware
# 创建的文件:29.03.2015 10:55:35

mtllib penquan.mtl

#
# object Cylinder001
#

v  0.5000 0.0000 -0.0000
v  0.4699 0.0000 -0.1736
v  0.4699 0.9853 -0.1736
v  0.5000 0.9853 -0.0000
v  0.3830 0.0000 -0.3263
v  0.3830 0.9853 -0.3263
v  0.2500 0.0000 -0.4396
v  0.2500 0.9853 -0.4396
v  0.0868 0.0000 -0.4999
v  0.0868 0.9853 -0.4999
v  -0.0868 0.0000 -0.4999
v  -0.0868 0.9756 -0.4999
v  -0.2500 0.0000 -0.4396
v  -0.2500 0.9756 -0.4396
v  -0.3830 0.0000 -0.3263
v  -0.3830 0.9756 -0.3263
v  -0.4699 0.0000 -0.1736
v  -0.4699 0.9756 -0.1736
v  -0.5000 0.0000 -0.0000
v  -0.5000 0.9756 -0.0000
v  -0.4699 0.0000 0.1736
v  -0.4699 0.9756 0.1736
v  -0.3830 0.0000 0.3263
v  -0.3830 0.9756 0.3263
v  -0.2500 0.0000 0.4396
v  -0.2500 0.9853 0.4396
v  -0.0868 0.0000 0.4999
v  -0.0868 0.9853 0.4999
v  0.0868 0.0000 0.4999
v  0.0868 0.9853 0.4999
v  0.2500 0.0000 0.4396
v  0.2500 0.9853 0.4396
v  0.3830 0.0000 0.3263
v  0.3830 0.9853 0.3263
v  0.4699 0.0000 0.1736
v  0.4699 0.9853 0.1736
v  0.3979 0.7505 -0.1470
v  0.3243 0.1727 -0.2763
v  0.2117 0.7512 -0.3722
v  0.0735 0.1727 -0.4233
v  -0.0735 0.7505 -0.4233
v  -0.2117 0.1727 -0.3722
v  -0.3243 0.7512 -0.2763
v  -0.3979 0.1727 -0.1470
v  -0.4234 0.7505 -0.0000
v  -0.3979 0.1727 0.1470
v  -0.3243 0.7512 0.2763
v  -0.2117 0.1727 0.3722
v  -0.0735 0.7505 0.4233
v  0.0735 0.1727 0.4233
v  0.2117 0.7512 0.3722
v  0.3243 0.1727 0.2763
v  0.3979 0.7512 0.1470
v  0.4234 0.1727 -0.0000
v  0.3979 0.9853 -0.1470
v  0.4234 0.9853 -0.0000
v  0.3243 0.9853 -0.2763
v  0.2117 0.9853 -0.3722
v  0.0735 0.9853 -0.4233
v  -0.0735 0.9756 -0.4233
v  -0.2117 1.0000 -0.3722
v  -0.3243 1.0000 -0.2763
v  -0.3979 1.0000 -0.1470
v  -0.4234 1.0000 -0.0000
v  -0.3979 1.0000 0.1470
v  -0.3243 1.0000 0.2763
v  -0.2117 0.9853 0.3722
v  -0.0735 0.9853 0.4233
v  0.0735 0.9853 0.4233
v  0.2117 0.9853 0.3722
v  0.3243 0.9853 0.2763
v  0.3979 0.9853 0.1470
# 72 vertices

vn 1.0000 0.0000 -0.0000
vn 0.9397 0.0000 -0.3420
vn 0.7660 0.0000 -0.6428
vn 0.5000 0.0000 -0.8660
vn 0.1736 0.0000 -0.9848
vn -0.1736 0.0000 -0.9848
vn -0.5000 0.0000 -0.8660
vn -0.7660 0.0000 -0.6428
vn -0.9397 0.0000 -0.3420
vn -1.0000 0.0000 -0.0000
vn -0.9397 0.0000 0.3420
vn -0.7660 0.0000 0.6428
vn -0.5000 0.0000 0.8660
vn -0.1736 0.0000 0.9848
vn 0.1736 0.0000 0.9848
vn 0.5000 0.0000 0.8660
vn 0.7660 0.0000 0.6428
vn 0.9397 0.0000 0.3420
vn 0.0000 -1.0000 -0.0000
vn 0.0000 1.0000 -0.0000
vn -0.9848 0.0000 0.1736
vn -0.8660 0.0000 0.5000
vn -0.6428 0.0000 0.7660
vn -0.3420 0.0000 0.9397
vn 0.0000 0.0000 1.0000
vn 0.3420 0.0000 0.9397
vn 0.6428 0.0000 0.7660
vn 0.8660 0.0000 0.5000
vn 0.9848 0.0000 0.1736
vn 0.9848 0.0000 -0.1736
vn 0.8660 0.0000 -0.5000
vn 0.6428 0.0000 -0.7660
vn 0.3420 0.0000 -0.9397
vn 0.0000 0.0000 -1.0000
vn -0.3420 0.0000 -0.9397
vn -0.6428 0.0000 -0.7660
vn -0.8660 0.0000 -0.5000
vn -0.9848 0.0000 -0.1736
# 38 vertex normals

vt 0.1826 -0.4539 0.0000
vt 0.1065 -0.4539 0.0000
vt 0.1065 -0.5140 0.0000
vt 0.1826 -0.5140 0.0000
vt 0.0395 -0.4539 0.0000
vt 0.0395 -0.5140 0.0000
vt 0.3806 -0.5390 0.0000
vt 0.3214 -0.5390 0.0000
vt 0.3214 -0.5991 0.0000
vt 0.3806 -0.5991 0.0000
vt 0.2487 -0.5390 0.0000
vt 0.2487 -0.5991 0.0000
vt 0.1714 -0.5390 0.0000
vt 0.1714 -0.5985 0.0000
vt 0.0987 -0.5390 0.0000
vt 0.0987 -0.5985 0.0000
vt 0.0395 -0.5390 0.0000
vt 0.0395 -0.5985 0.0000
vt 0.3257 -0.3694 0.0000
vt 0.2587 -0.3694 0.0000
vt 0.2587 -0.4289 0.0000
vt 0.3257 -0.4289 0.0000
vt 0.1826 -0.3694 0.0000
vt 0.1826 -0.4289 0.0000
vt 0.1065 -0.3694 0.0000
vt 0.1065 -0.4289 0.0000
vt 0.0395 -0.3694 0.0000
vt 0.0395 -0.4289 0.0000
vt 0.3806 -0.6242 0.0000
vt 0.3214 -0.6242 0.0000
vt 0.3214 -0.6842 0.0000
vt 0.3806 -0.6836 0.0000
vt 0.2487 -0.6242 0.0000
vt 0.2487 -0.6842 0.0000
vt 0.1714 -0.6242 0.0000
vt 0.1714 -0.6842 0.0000
vt 0.0987 -0.6242 0.0000
vt 0.0987 -0.6842 0.0000
vt 0.0395 -0.6242 0.0000
vt 0.0395 -0.6842 0.0000
vt 0.3257 -0.4539 0.0000
vt 0.2587 -0.4539 0.0000
vt 0.2587 -0.5140 0.0000
vt 0.3257 -0.5140 0.0000
vt 0.0621 0.5496 0.0000
vt 0.1213 0.4999 0.0000
vt 0.1940 0.4735 0.0000
vt 0.2713 0.4735 0.0000
vt 0.3439 0.4999 0.0000
vt 0.4031 0.5496 0.0000
vt 0.4418 0.6166 0.0000
vt 0.4552 0.6927 0.0000
vt 0.4418 0.7689 0.0000
vt 0.4031 0.8358 0.0000
vt 0.3439 0.8855 0.0000
vt 0.2713 0.9120 0.0000
vt 0.1940 0.9120 0.0000
vt 0.1213 0.8855 0.0000
vt 0.0621 0.8358 0.0000
vt 0.0234 0.7689 0.0000
vt 0.0100 0.6927 0.0000
vt 0.0234 0.6166 0.0000
vt 0.1685 -0.7486 0.0000
vt 0.1040 -0.7116 0.0000
vt 0.0395 -0.7487 0.0000
vt 0.2056 0.3368 0.0000
vt 0.1686 0.2723 0.0000
vt 0.2056 0.2078 0.0000
vt 0.3495 -0.8224 0.0000
vt 0.2850 -0.7854 0.0000
vt 0.2205 -0.8224 0.0000
vt 0.9607 0.2365 0.0000
vt 0.9896 0.5656 0.0000
vt 0.9063 0.8549 0.0000
vt 0.2964 0.3368 0.0000
vt 0.2594 0.2723 0.0000
vt 0.2964 0.2078 0.0000
vt 0.3418 0.3368 0.0000
vt 0.3048 0.2723 0.0000
vt 0.3418 0.2078 0.0000
vt 0.7497 0.9692 0.0000
vt 0.5930 0.8549 0.0000
vt 0.3495 -0.9075 0.0000
vt 0.2850 -0.8705 0.0000
vt 0.2205 -0.9075 0.0000
vt 0.2510 0.3368 0.0000
vt 0.2140 0.2723 0.0000
vt 0.2510 0.2078 0.0000
vt 0.5097 0.5656 0.0000
vt 0.5386 0.2365 0.0000
vt 0.4797 -0.5140 0.0000
vt 0.4152 -0.4769 0.0000
vt 0.3508 -0.5140 0.0000
vt 0.6663 0.0218 0.0000
vt 0.8330 0.0218 0.0000
vt 0.4152 -0.3918 0.0000
vt 0.3508 -0.4288 0.0000
vt 0.4797 -0.4289 0.0000
vt 0.0100 0.2292 0.0000
vt 0.0234 0.1531 0.0000
vt 0.0555 0.1648 0.0000
vt 0.0441 0.2292 0.0000
vt 0.0621 0.0861 0.0000
vt 0.0882 0.1081 0.0000
vt 0.1213 0.0364 0.0000
vt 0.1384 0.0660 0.0000
vt 0.1940 0.0100 0.0000
vt 0.1999 0.0436 0.0000
vt 0.2713 0.0100 0.0000
vt 0.2653 0.0436 0.0000
vt 0.3439 0.0364 0.0000
vt 0.3269 0.0660 0.0000
vt 0.4031 0.0861 0.0000
vt 0.3770 0.1081 0.0000
vt 0.4418 0.1531 0.0000
vt 0.4097 0.1648 0.0000
vt 0.4552 0.2292 0.0000
vt 0.4211 0.2292 0.0000
vt 0.4418 0.3054 0.0000
vt 0.4097 0.2937 0.0000
vt 0.4031 0.3723 0.0000
vt 0.3770 0.3504 0.0000
vt 0.3439 0.4220 0.0000
vt 0.3269 0.3925 0.0000
vt 0.2713 0.4485 0.0000
vt 0.2653 0.4149 0.0000
vt 0.1940 0.4485 0.0000
vt 0.1999 0.4149 0.0000
vt 0.1213 0.4220 0.0000
vt 0.1384 0.3925 0.0000
vt 0.0621 0.3723 0.0000
vt 0.0882 0.3504 0.0000
vt 0.0234 0.3054 0.0000
vt 0.0555 0.2937 0.0000
vt 0.2312 -0.1631 0.0000
vt 0.2957 -0.1631 0.0000
vt 0.2957 -0.1488 0.0000
vt 0.2312 -0.1135 0.0000
vt 0.3524 -0.1631 0.0000
vt 0.3524 -0.1135 0.0000
vt 0.0395 -0.3434 0.0000
vt 0.0897 -0.3434 0.0000
vt 0.0897 -0.3292 0.0000
vt 0.0395 -0.2939 0.0000
vt 0.1512 -0.3434 0.0000
vt 0.1512 -0.2939 0.0000
vt 0.2167 -0.3429 0.0000
vt 0.2167 -0.3291 0.0000
vt 0.2782 -0.3443 0.0000
vt 0.2782 -0.2939 0.0000
vt 0.3283 -0.3443 0.0000
vt 0.3283 -0.3292 0.0000
vt 0.0395 -0.2689 0.0000
vt 0.0962 -0.2689 0.0000
vt 0.0962 -0.2184 0.0000
vt 0.0395 -0.2537 0.0000
vt 0.1607 -0.2689 0.0000
vt 0.1607 -0.2537 0.0000
vt 0.2252 -0.2689 0.0000
vt 0.2252 -0.2184 0.0000
vt 0.2819 -0.2689 0.0000
vt 0.2819 -0.2537 0.0000
vt 0.0100 0.9370 0.0000
vt 0.0601 0.9379 0.0000
vt 0.0601 0.9874 0.0000
vt 0.0100 0.9522 0.0000
vt 0.1217 0.9379 0.0000
vt 0.1217 0.9522 0.0000
vt 0.1871 0.9379 0.0000
vt 0.1871 0.9874 0.0000
vt 0.2486 0.9379 0.0000
vt 0.2486 0.9522 0.0000
vt 0.2988 0.9379 0.0000
vt 0.2988 0.9874 0.0000
vt 0.1100 -0.1631 0.0000
vt 0.1667 -0.1631 0.0000
vt 0.1667 -0.1488 0.0000
vt 0.1100 -0.1135 0.0000
# 178 texture coords

g Cylinder001
usemtl wire_166229229
s 8
f 1/1/1 2/2/2 3/3/2 
f 3/3/2 4/4/1 1/1/1 
f 2/2/2 5/5/3 6/6/3 
f 6/6/3 3/3/2 2/2/2 
f 5/7/3 7/8/4 8/9/4 
f 8/9/4 6/10/3 5/7/3 
f 7/8/4 9/11/5 10/12/5 
f 10/12/5 8/9/4 7/8/4 
f 9/11/5 11/13/6 12/14/6 
f 12/14/6 10/12/5 9/11/5 
f 11/13/6 13/15/7 14/16/7 
f 14/16/7 12/14/6 11/13/6 
f 13/15/7 15/17/8 16/18/8 
f 16/18/8 14/16/7 13/15/7 
f 15/19/8 17/20/9 18/21/9 
f 18/21/9 16/22/8 15/19/8 
f 17/20/9 19/23/10 20/24/10 
f 20/24/10 18/21/9 17/20/9 
f 19/23/10 21/25/11 22/26/11 
f 22/26/11 20/24/10 19/23/10 
f 21/25/11 23/27/12 24/28/12 
f 24/28/12 22/26/11 21/25/11 
f 23/29/12 25/30/13 26/31/13 
f 26/31/13 24/32/12 23/29/12 
f 25/30/13 27/33/14 28/34/14 
f 28/34/14 26/31/13 25/30/13 
f 27/33/14 29/35/15 30/36/15 
f 30/36/15 28/34/14 27/33/14 
f 29/35/15 31/37/16 32/38/16 
f 32/38/16 30/36/15 29/35/15 
f 31/37/16 33/39/17 34/40/17 
f 34/40/17 32/38/16 31/37/16 
f 33/41/17 35/42/18 36/43/18 
f 36/43/18 34/44/17 33/41/17 
f 35/42/18 1/1/1 4/4/1 
f 4/4/1 36/43/18 35/42/18 
s 1
f 33/45/19 31/46/19 29/47/19 
f 29/47/19 27/48/19 25/49/19 
f 25/49/19 23/50/19 21/51/19 
f 29/47/19 25/49/19 21/51/19 
f 21/51/19 19/52/19 17/53/19 
f 17/53/19 15/54/19 13/55/19 
f 21/51/19 17/53/19 13/55/19 
f 13/55/19 11/56/19 9/57/19 
f 9/57/19 7/58/19 5/59/19 
f 13/55/19 9/57/19 5/59/19 
f 21/51/19 13/55/19 5/59/19 
f 29/47/19 21/51/19 5/59/19 
f 5/59/19 2/60/19 1/61/19 
f 29/47/19 5/59/19 1/61/19 
f 33/45/19 29/47/19 1/61/19 
f 35/62/19 33/45/19 1/61/19 
f 37/63/20 38/64/20 39/65/20 
f 39/66/20 40/67/20 41/68/20 
f 41/69/20 42/70/20 43/71/20 
f 39/72/20 41/73/20 43/74/20 
f 43/75/20 44/76/20 45/77/20 
f 45/78/20 46/79/20 47/80/20 
f 43/74/20 45/81/20 47/82/20 
f 47/83/20 48/84/20 49/85/20 
f 49/86/20 50/87/20 51/88/20 
f 47/82/20 49/89/20 51/90/20 
f 43/74/20 47/82/20 51/90/20 
f 39/72/20 43/74/20 51/90/20 
f 51/91/20 52/92/20 53/93/20 
f 39/72/20 51/90/20 53/94/20 
f 37/95/20 39/72/20 53/94/20 
f 54/96/20 37/97/20 53/98/20 
s off
f 4/99/20 3/100/20 55/101/20 
f 55/101/20 56/102/20 4/99/20 
f 3/100/20 6/103/20 57/104/20 
f 57/104/20 55/101/20 3/100/20 
f 6/103/20 8/105/20 58/106/20 
f 58/106/20 57/104/20 6/103/20 
f 8/105/20 10/107/20 59/108/20 
f 59/108/20 58/106/20 8/105/20 
f 10/107/20 12/109/20 60/110/20 
f 60/110/20 59/108/20 10/107/20 
f 12/109/20 14/111/20 61/112/20 
f 61/112/20 60/110/20 12/109/20 
f 14/111/20 16/113/20 62/114/20 
f 62/114/20 61/112/20 14/111/20 
f 16/113/20 18/115/20 63/116/20 
f 63/116/20 62/114/20 16/113/20 
f 18/115/20 20/117/20 64/118/20 
f 64/118/20 63/116/20 18/115/20 
f 20/117/20 22/119/20 65/120/20 
f 65/120/20 64/118/20 20/117/20 
f 22/119/20 24/121/20 66/122/20 
f 66/122/20 65/120/20 22/119/20 
f 24/121/20 26/123/20 67/124/20 
f 67/124/20 66/122/20 24/121/20 
f 26/123/20 28/125/20 68/126/20 
f 68/126/20 67/124/20 26/123/20 
f 28/125/20 30/127/20 69/128/20 
f 69/128/20 68/126/20 28/125/20 
f 30/127/20 32/129/20 70/130/20 
f 70/130/20 69/128/20 30/127/20 
f 32/129/20 34/131/20 71/132/20 
f 71/132/20 70/130/20 32/129/20 
f 34/131/20 36/133/20 72/134/20 
f 72/134/20 71/132/20 34/131/20 
f 36/133/20 4/99/20 56/102/20 
f 56/102/20 72/134/20 36/133/20 
f 56/135/21 55/136/21 37/137/21 
f 37/137/21 54/138/21 56/135/21 
f 55/136/22 57/139/22 38/140/22 
f 38/140/22 37/137/22 55/136/22 
f 57/141/23 58/142/23 39/143/23 
f 39/143/23 38/144/23 57/141/23 
f 58/142/24 59/145/24 40/146/24 
f 40/146/24 39/143/24 58/142/24 
f 59/145/25 60/147/25 41/148/25 
f 41/148/25 40/146/25 59/145/25 
f 60/147/26 61/149/26 42/150/26 
f 42/150/26 41/148/26 60/147/26 
f 61/149/27 62/151/27 43/152/27 
f 43/152/27 42/150/27 61/149/27 
f 62/153/28 63/154/28 44/155/28 
f 44/155/28 43/156/28 62/153/28 
f 63/154/29 64/157/29 45/158/29 
f 45/158/29 44/155/29 63/154/29 
f 64/157/30 65/159/30 46/160/30 
f 46/160/30 45/158/30 64/157/30 
f 65/159/31 66/161/31 47/162/31 
f 47/162/31 46/160/31 65/159/31 
f 66/163/32 67/164/32 48/165/32 
f 48/165/32 47/166/32 66/163/32 
f 67/164/33 68/167/33 49/168/33 
f 49/168/33 48/165/33 67/164/33 
f 68/167/34 69/169/34 50/170/34 
f 50/170/34 49/168/34 68/167/34 
f 69/169/35 70/171/35 51/172/35 
f 51/172/35 50/170/35 69/169/35 
f 70/171/36 71/173/36 52/174/36 
f 52/174/36 51/172/36 70/171/36 
f 71/175/37 72/176/37 53/177/37 
f 53/177/37 52/178/37 71/175/37 
f 72/176/38 56/135/38 54/138/38 
f 54/138/38 53/177/38 72/176/38 
# 140 faces

