# 3ds Max Wavefront OBJ Exporter v0.97b - (c)2007 guruware
# 创建的文件:26.04.2015 19:22:10

mtllib skybox.mtl

#
# object Box002
#

v  -0.0127 0.0000 0.0127
v  -0.0127 0.0000 -0.0127
v  0.0127 0.0000 -0.0127
v  0.0127 0.0000 0.0127
v  -0.0127 0.0254 0.0127
v  0.0127 0.0254 0.0127
v  0.0127 0.0254 -0.0127
v  -0.0127 0.0254 -0.0127
# 8 vertices

vn 0.0000 -1.0000 -0.0000
vn 0.0000 1.0000 -0.0000
vn 0.0000 0.0000 1.0000
vn 1.0000 0.0000 -0.0000
vn 0.0000 0.0000 -1.0000
vn -1.0000 0.0000 -0.0000
# 6 vertex normals

vt 1.0000 0.0000 0.0000
vt 1.0000 1.0000 0.0000
vt 0.0000 1.0000 0.0000
vt 0.0000 0.0000 0.0000
# 4 texture coords

g Box002
usemtl wire_184228153
s 2
f 1/1/1 2/2/1 3/3/1 
f 3/3/1 4/4/1 1/1/1 
s 4
f 5/4/2 6/1/2 7/2/2 
f 7/2/2 8/3/2 5/4/2 
s 8
f 1/4/3 4/1/3 6/2/3 
f 6/2/3 5/3/3 1/4/3 
s 16
f 4/4/4 3/1/4 7/2/4 
f 7/2/4 6/3/4 4/4/4 
s 32
f 3/4/5 2/1/5 8/2/5 
f 8/2/5 7/3/5 3/4/5 
s 64
f 2/4/6 1/1/6 5/2/6 
f 5/2/6 8/3/6 2/4/6 
# 12 faces

#
# object Box01
#

v  -0.5000 0.0000 -0.5000
v  -0.5000 0.0000 0.5000
v  0.5000 0.0000 -0.5000
v  0.5000 0.0000 0.5000
v  0.5000 1.0000 0.5000
v  -0.5000 1.0000 0.5000
v  0.5000 1.0000 -0.5000
v  -0.5000 1.0000 -0.5000
# 8 vertices

vn 0.0000 1.0000 -0.0000
vn 0.0000 -1.0000 -0.0000
vn 0.0000 0.0000 -1.0000
vn -1.0000 0.0000 -0.0000
vn 0.0000 0.0000 1.0000
vn 1.0000 0.0000 -0.0000
# 6 vertex normals

vt 0.2500 0.2500 0.0000
vt 0.2500 0.5000 0.0000
vt 0.5000 0.2500 0.0000
vt 0.5000 0.5000 0.0000
vt 0.5000 0.7500 0.0000
vt 0.2500 0.7500 0.0000
vt 0.5000 1.0000 0.0000
vt 0.2500 1.0000 0.0000
vt 0.7500 0.5000 0.0000
vt 0.7500 0.7500 0.0000
vt 1.0000 0.5000 0.0000
vt 1.0000 0.7500 0.0000
vt 0.0000 0.5000 0.0000
vt 0.0000 0.7500 0.0000
# 14 texture coords

g Box01
usemtl 02___Default
s off
f 9/5/7 10/6/7 11/7/7 
f 12/8/7 11/7/7 10/6/7 
f 13/9/8 14/10/8 15/11/8 
f 16/12/8 15/11/8 14/10/8 
f 12/8/9 10/6/9 13/9/9 
f 14/10/9 13/9/9 10/6/9 
f 11/13/10 12/8/10 15/14/10 
f 13/9/10 15/14/10 12/8/10 
f 9/15/11 11/13/11 16/16/11 
f 15/14/11 16/16/11 11/13/11 
f 10/6/12 9/17/12 14/10/12 
f 16/18/12 14/10/12 9/17/12 
# 12 faces

