# 3ds Max Wavefront OBJ Exporter v0.97b - (c)2007 guruware
# 创建的文件:19.04.2015 11:48:20

mtllib tree3.mtl

#
# object Tree_01_a
#

v  -0.1221 0.7015 -0.2115
v  0.1284 1.0254 -0.2224
v  0.1221 0.7015 -0.2115
v  -0.1284 1.0254 -0.2224
v  -0.2568 1.0254 -0.0000
v  -0.2443 0.7015 -0.0000
v  -0.1221 0.7015 0.2115
v  -0.1284 1.0254 0.2224
v  0.1221 0.7015 0.2115
v  0.1284 1.0254 0.2224
v  0.2568 1.0254 -0.0000
v  0.2443 0.7015 -0.0000
v  -0.1221 -0.0000 -0.2115
v  -0.1573 0.2848 -0.2725
v  0.1221 -0.0000 -0.2115
v  0.1573 0.2848 -0.2725
v  -0.3146 0.2848 -0.0000
v  -0.2443 -0.0000 -0.0000
v  -0.1221 -0.0000 0.2115
v  -0.1573 0.2848 0.2725
v  0.1221 -0.0000 0.2115
v  0.1573 0.2848 0.2725
v  0.3146 0.2848 -0.0000
v  0.2443 -0.0000 -0.0000
v  -0.2158 0.5179 -0.3738
v  -0.3427 0.8606 -0.5937
v  0.2158 0.5179 -0.3738
v  0.3427 0.8606 -0.5937
v  -0.6855 0.8606 -0.0000
v  -0.4317 0.5179 -0.0000
v  -0.2158 0.5179 0.3738
v  -0.3427 0.8606 0.5937
v  0.3427 0.8606 0.5937
v  0.2158 0.5179 0.3738
v  0.6855 0.8606 -0.0000
v  0.4317 0.5179 -0.0000
v  0.0000 0.5834 -0.7552
v  0.0000 1.0194 -0.8720
v  0.6540 0.5834 -0.3776
v  0.7552 1.0194 -0.4360
v  -0.6540 0.5834 -0.3776
v  -0.7552 1.0194 -0.4360
v  -0.6540 0.5834 0.3776
v  -0.7552 1.0194 0.4360
v  0.0000 1.0194 0.8720
v  0.0000 0.5834 0.7552
v  0.6540 0.5834 0.3776
v  0.7552 1.0194 0.4360
v  0.6540 1.4554 -0.3776
v  0.0000 1.4554 -0.7552
v  -0.6540 1.4554 -0.3776
v  -0.6540 1.4554 0.3776
v  0.0000 1.4554 0.7552
v  0.6540 1.4554 0.3776
v  0.0000 1.7746 -0.4360
v  0.3776 1.7746 -0.2180
v  -0.3776 1.7746 -0.2180
v  -0.3776 1.7746 0.2180
v  0.0000 1.7746 0.4360
v  0.3776 1.7746 0.2180
v  0.0000 1.8914 -0.0000
# 61 vertices

vn -0.4989 0.0665 -0.8641
vn 0.4996 -0.0386 -0.8654
vn 0.4989 0.0665 -0.8641
vn -0.4996 -0.0386 -0.8654
vn -0.9993 -0.0386 -0.0000
vn -0.9978 0.0665 -0.0000
vn -0.4989 0.0665 0.8641
vn -0.4996 -0.0386 0.8654
vn 0.4989 0.0665 0.8641
vn 0.4996 -0.0386 0.8654
vn 0.9993 -0.0386 -0.0000
vn 0.9978 0.0665 -0.0000
vn -0.4854 -0.2399 -0.8407
vn -0.4997 -0.0352 -0.8655
vn 0.4854 -0.2399 -0.8407
vn 0.4997 -0.0352 -0.8655
vn -0.9994 -0.0352 -0.0000
vn -0.9708 -0.2399 -0.0000
vn -0.4854 -0.2399 0.8407
vn -0.4997 -0.0352 0.8655
vn 0.4854 -0.2399 0.8407
vn 0.4997 -0.0352 0.8655
vn 0.9994 -0.0352 -0.0000
vn 0.9708 -0.2399 -0.0000
vn -0.4018 -0.5951 -0.6960
vn 0.4018 -0.5951 -0.6960
vn -0.8036 -0.5951 -0.0000
vn -0.4018 -0.5951 0.6960
vn 0.4018 -0.5951 0.6960
vn 0.8036 -0.5951 -0.0000
vn 0.0000 -0.2588 -0.9659
vn 0.0000 0.0000 -1.0000
vn 0.8365 -0.2588 -0.4830
vn 0.8660 0.0000 -0.5000
vn -0.8365 -0.2588 -0.4830
vn -0.8660 0.0000 -0.5000
vn -0.8365 -0.2588 0.4830
vn -0.8660 0.0000 0.5000
vn 0.0000 0.0000 1.0000
vn 0.0000 -0.2588 0.9659
vn 0.8365 -0.2588 0.4830
vn 0.8660 0.0000 0.5000
vn 0.7657 0.4671 -0.4421
vn 0.0000 0.4671 -0.8842
vn -0.7657 0.4671 -0.4421
vn -0.7657 0.4671 0.4421
vn 0.0000 0.4671 0.8842
vn 0.7657 0.4671 0.4421
vn 0.0000 0.8295 -0.5585
vn 0.4837 0.8295 -0.2793
vn -0.4837 0.8295 -0.2793
vn -0.4837 0.8295 0.2793
vn 0.0000 0.8295 0.5585
vn 0.4837 0.8295 0.2793
vn 0.0000 1.0000 -0.0000
# 55 vertex normals

vt 0.1238 0.7864 0.0000
vt 0.1034 0.8116 0.0000
vt 0.1034 0.7864 0.0000
vt 0.1238 0.8116 0.0000
vt 0.0219 0.8116 0.0000
vt 0.0015 0.7864 0.0000
vt 0.0219 0.7864 0.0000
vt 0.0015 0.8116 0.0000
vt 0.0423 0.7864 0.0000
vt 0.0423 0.8116 0.0000
vt 0.0627 0.7864 0.0000
vt 0.0627 0.8116 0.0000
vt 0.0830 0.8116 0.0000
vt 0.0830 0.7864 0.0000
vt 0.1238 0.6888 0.0000
vt 0.1238 0.7296 0.0000
vt 0.1034 0.6888 0.0000
vt 0.1034 0.7296 0.0000
vt 0.0219 0.7296 0.0000
vt 0.0015 0.6888 0.0000
vt 0.0219 0.6888 0.0000
vt 0.0015 0.7296 0.0000
vt 0.0423 0.6888 0.0000
vt 0.0423 0.7296 0.0000
vt 0.0627 0.6888 0.0000
vt 0.0627 0.7296 0.0000
vt 0.0830 0.7296 0.0000
vt 0.0830 0.6888 0.0000
vt 0.5469 0.9252 0.0000
vt 0.5626 0.8980 0.0000
vt 0.6399 0.9252 0.0000
vt 0.6242 0.8980 0.0000
vt 0.5318 0.8446 0.0000
vt 0.5004 0.8446 0.0000
vt 0.5469 0.7641 0.0000
vt 0.5626 0.7913 0.0000
vt 0.6242 0.7913 0.0000
vt 0.6399 0.7641 0.0000
vt 0.6550 0.8446 0.0000
vt 0.6864 0.8446 0.0000
vt 0.6129 0.8785 0.0000
vt 0.5738 0.8785 0.0000
vt 0.5543 0.8446 0.0000
vt 0.5738 0.8108 0.0000
vt 0.6129 0.8108 0.0000
vt 0.6325 0.8446 0.0000
vt 0.5836 0.8616 0.0000
vt 0.6032 0.8616 0.0000
vt 0.5738 0.8446 0.0000
vt 0.5836 0.8276 0.0000
vt 0.6032 0.8276 0.0000
vt 0.6130 0.8446 0.0000
vt 0.5934 0.8446 0.0000
# 53 texture coords

g Tree_01_a
usemtl 01___Default
s 1
f 1/1/1 2/2/2 3/3/3 
f 2/2/2 1/1/1 4/4/4 
f 5/5/5 1/6/1 6/7/6 
f 1/6/1 5/5/5 4/8/4 
f 7/9/7 5/5/5 6/7/6 
f 5/5/5 7/9/7 8/10/8 
f 8/10/8 9/11/9 10/12/10 
f 9/11/9 8/10/8 7/9/7 
f 10/12/10 9/11/9 11/13/11 
f 9/11/9 12/14/12 11/13/11 
f 11/13/11 3/3/3 2/2/2 
f 3/3/3 11/13/11 12/14/12 
f 13/15/13 14/16/14 15/17/15 
f 15/17/15 14/16/14 16/18/16 
f 17/19/17 13/20/13 18/21/18 
f 13/20/13 17/19/17 14/22/14 
f 19/23/19 17/19/17 18/21/18 
f 17/19/17 19/23/19 20/24/20 
f 20/24/20 21/25/21 22/26/22 
f 21/25/21 20/24/20 19/23/19 
f 22/26/22 21/25/21 23/27/23 
f 21/25/21 24/28/24 23/27/23 
f 23/27/23 15/17/15 16/18/16 
f 15/17/15 23/27/23 24/28/24 
f 14/16/14 3/3/3 16/18/16 
f 3/3/3 14/16/14 1/1/1 
f 17/19/17 1/6/1 14/22/14 
f 1/6/1 17/19/17 6/7/6 
f 7/9/7 17/19/17 20/24/20 
f 17/19/17 7/9/7 6/7/6 
f 9/11/9 7/9/7 20/24/20 
f 9/11/9 20/24/20 22/26/22 
f 9/11/9 23/27/23 12/14/12 
f 23/27/23 9/11/9 22/26/22 
f 16/18/16 3/3/3 23/27/23 
f 12/14/12 23/27/23 3/3/3 
f 25/29/25 26/30/25 27/31/26 
f 27/31/26 26/30/25 28/32/26 
f 29/33/27 25/29/25 30/34/27 
f 29/33/27 26/30/25 25/29/25 
f 31/35/28 29/33/27 30/34/27 
f 29/33/27 31/35/28 32/36/28 
f 33/37/29 32/36/28 31/35/28 
f 33/37/29 31/35/28 34/38/29 
f 33/37/29 34/38/29 35/39/30 
f 34/38/29 36/40/30 35/39/30 
f 35/39/30 27/31/26 28/32/26 
f 27/31/26 35/39/30 36/40/30 
f 37/29/31 38/30/32 39/31/33 
f 39/31/33 38/30/32 40/32/34 
f 41/34/35 38/30/32 37/29/31 
f 38/30/32 41/34/35 42/33/36 
f 43/35/37 42/33/36 41/34/35 
f 42/33/36 43/35/37 44/36/38 
f 45/37/39 44/36/38 43/35/37 
f 45/37/39 43/35/37 46/38/40 
f 45/37/39 47/40/41 48/39/42 
f 47/40/41 45/37/39 46/38/40 
f 40/32/34 48/39/42 47/40/41 
f 47/40/41 39/31/33 40/32/34 
f 38/30/32 49/41/43 40/32/34 
f 49/41/43 38/30/32 50/42/44 
f 42/33/36 51/43/45 38/30/32 
f 38/30/32 51/43/45 50/42/44 
f 52/44/46 42/33/36 44/36/38 
f 42/33/36 52/44/46 51/43/45 
f 52/44/46 45/37/39 53/45/47 
f 45/37/39 52/44/46 44/36/38 
f 54/46/48 53/45/47 45/37/39 
f 45/37/39 48/39/42 54/46/48 
f 54/46/48 40/32/34 49/41/43 
f 40/32/34 54/46/48 48/39/42 
f 55/47/49 49/41/43 50/42/44 
f 49/41/43 55/47/49 56/48/50 
f 51/43/45 57/49/51 50/42/44 
f 50/42/44 57/49/51 55/47/49 
f 52/44/46 57/49/51 51/43/45 
f 57/49/51 52/44/46 58/50/52 
f 58/50/52 53/45/47 59/51/53 
f 53/45/47 58/50/52 52/44/46 
f 54/46/48 59/51/53 53/45/47 
f 59/51/53 54/46/48 60/52/54 
f 60/52/54 49/41/43 56/48/50 
f 49/41/43 60/52/54 54/46/48 
f 56/48/50 55/47/49 61/53/55 
f 55/47/49 57/49/51 61/53/55 
f 57/49/51 58/50/52 61/53/55 
f 58/50/52 59/51/53 61/53/55 
f 59/51/53 60/52/54 61/53/55 
f 60/52/54 56/48/50 61/53/55 
# 90 faces

