# 3ds Max Wavefront OBJ Exporter v0.97b - (c)2007 guruware
# 创建的文件:24.04.2015 12:22:08

mtllib tree1.mtl

#
# object Tree_02_c
#

v  -0.1106 0.0000 -0.1914
v  -0.1512 0.5025 -0.2620
v  0.1106 0.0000 -0.1914
v  0.1512 0.5025 -0.2620
v  -0.3026 0.5025 -0.0000
v  -0.2212 0.0000 -0.0000
v  -0.1106 0.0000 0.1914
v  -0.1512 0.5025 0.2620
v  0.1512 0.5025 0.2620
v  0.1106 0.0000 0.1914
v  0.3026 0.5025 -0.0000
v  0.2212 0.0000 -0.0000
v  0.0794 2.1699 -0.1376
v  -0.0794 2.1699 -0.1376
v  -0.1588 2.1699 -0.0000
v  -0.0794 2.1699 0.1376
v  0.0794 2.1699 0.1376
v  0.1588 2.1699 -0.0000
v  0.6850 0.1261 -1.2382
v  -0.2668 2.6562 -0.4628
v  0.2668 2.6562 -0.4628
v  -0.8666 0.2662 -1.1578
v  -1.6300 0.5638 -0.0558
v  -0.5336 2.6566 -0.0006
v  -0.2668 2.6572 0.4616
v  -0.6850 0.7854 1.3052
v  0.6242 0.8695 1.1684
v  0.2668 2.6572 0.4616
v  1.3090 0.2509 0.0460
v  0.5336 2.6566 -0.0006
v  0.2788 2.0629 1.3142
v  0.1484 3.7924 0.3064
v  -0.2380 3.7184 0.3832
v  1.3412 1.8908 0.5160
v  0.2844 3.7414 -0.0706
v  1.1880 1.7413 -0.7956
v  -0.0228 1.5287 -1.3746
v  0.0294 3.6164 -0.3686
v  -0.3616 3.5424 -0.2898
v  -1.3500 1.4655 -0.5146
v  -0.4976 3.5935 0.0872
v  -0.9978 1.6149 1.1724
v  -0.0210 3.1440 1.0758
v  -0.5588 4.3967 -0.1152
v  -0.9766 2.6466 0.6236
v  -0.3902 4.4952 0.1144
v  -0.1050 4.5750 0.0748
v  0.8320 3.1460 0.4704
v  0.0114 4.5564 -0.1942
v  0.7332 2.7254 -0.5868
v  -0.1574 4.4579 -0.4238
v  -0.2056 2.5328 -1.1926
v  -0.4426 4.3780 -0.3842
v  -1.0686 2.3513 -0.4336
v  -0.9224 3.4210 -0.0010
v  -0.5440 4.6920 -0.2620
v  -0.4370 3.7548 -0.8390
v  -0.5790 4.5887 0.1194
v  -0.3566 3.5702 0.6566
v  -0.2676 4.6262 0.3526
v  0.4142 3.9182 0.6058
v  0.0788 4.7671 0.2044
v  0.7596 3.8922 -0.1028
v  0.1138 4.8703 -0.1768
v  0.3338 3.9633 -0.7606
v  -0.1976 4.8328 -0.4100
v  -0.2234 5.9881 0.1006
# 67 vertices

vn -0.4876 -0.2212 -0.8446
vn -0.4994 -0.0489 -0.8650
vn 0.4876 -0.2212 -0.8446
vn 0.4994 -0.0489 -0.8650
vn -0.9988 -0.0489 -0.0000
vn -0.9752 -0.2212 -0.0000
vn -0.4876 -0.2212 0.8446
vn -0.4994 -0.0489 0.8650
vn 0.4994 -0.0489 0.8650
vn 0.4876 -0.2212 0.8446
vn 0.9988 -0.0489 -0.0000
vn 0.9752 -0.2212 -0.0000
vn 0.4964 0.1198 -0.8598
vn -0.4964 0.1198 -0.8598
vn -0.9928 0.1198 -0.0000
vn -0.4964 0.1198 0.8598
vn 0.4964 0.1198 0.8598
vn 0.9928 0.1198 -0.0000
vn 0.4562 0.4353 -0.7761
vn -0.3796 0.4968 -0.7805
vn 0.4653 0.4279 -0.7749
vn -0.3774 0.4598 -0.8038
vn -0.8135 0.5703 -0.1141
vn -0.8065 0.5911 0.0104
vn -0.4002 0.5667 0.7202
vn -0.3987 0.5754 0.7141
vn 0.5270 0.5277 0.6661
vn 0.4707 0.4980 0.7283
vn 0.9007 0.4241 -0.0942
vn 0.9116 0.4110 -0.0090
vn 0.1045 0.6441 0.7577
vn 0.4591 0.6872 0.5630
vn -0.4782 0.4047 0.7794
vn 0.7431 0.6309 0.2231
vn 0.7154 0.6521 -0.2509
vn 0.5743 0.6291 -0.5238
vn -0.0834 0.5562 -0.8268
vn 0.3011 0.5261 -0.7953
vn -0.5415 0.5581 -0.6287
vn -0.7867 0.5103 -0.3473
vn -0.8139 0.5305 0.2368
vn -0.6135 0.6060 0.5063
vn -0.0828 0.6758 0.7324
vn -0.9014 0.4168 0.1170
vn -0.7977 0.4813 0.3633
vn -0.5513 0.4735 0.6870
vn 0.3797 0.7477 0.5448
vn 0.7172 0.6632 0.2139
vn 0.7350 0.6455 -0.2076
vn 0.6610 0.5025 -0.5573
vn 0.2777 0.5282 -0.8025
vn -0.1431 0.4425 -0.8853
vn -0.5909 0.4351 -0.6794
vn -0.8622 0.3450 -0.3708
vn -0.9478 0.2913 0.1296
vn -0.7934 0.4333 -0.4275
vn -0.5047 0.4385 -0.7436
vn -0.8506 0.3420 0.3993
vn -0.4551 0.3369 0.8242
vn -0.2305 0.3849 0.8937
vn 0.3887 0.5982 0.7008
vn 0.6064 0.5425 0.5814
vn 0.7515 0.6594 -0.0201
vn 0.7257 0.6163 -0.3060
vn 0.3904 0.6162 -0.6841
vn -0.0278 0.5879 -0.8085
vn -0.0186 0.9891 0.1461
# 67 vertex normals

vt 0.1244 0.6881 0.0000
vt 0.1244 0.7118 0.0000
vt 0.1038 0.6881 0.0000
vt 0.1038 0.7118 0.0000
vt 0.0213 0.7118 0.0000
vt 0.0006 0.6881 0.0000
vt 0.0213 0.6881 0.0000
vt 0.0006 0.7118 0.0000
vt 0.0419 0.6881 0.0000
vt 0.0419 0.7118 0.0000
vt 0.0625 0.7118 0.0000
vt 0.0625 0.6881 0.0000
vt 0.0831 0.7118 0.0000
vt 0.0831 0.6881 0.0000
vt 0.1038 0.7868 0.0000
vt 0.1244 0.7868 0.0000
vt 0.0213 0.7868 0.0000
vt 0.0006 0.7868 0.0000
vt 0.0419 0.7868 0.0000
vt 0.0625 0.7868 0.0000
vt 0.0831 0.7868 0.0000
vt 0.8245 0.7654 0.0000
vt 0.8239 0.8438 0.0000
vt 0.8031 0.8079 0.0000
vt 0.8666 0.8438 0.0000
vt 0.8245 0.9213 0.0000
vt 0.8008 0.8820 0.0000
vt 0.7568 0.8827 0.0000
vt 0.7355 0.9213 0.0000
vt 0.6914 0.8438 0.0000
vt 0.7360 0.8438 0.0000
vt 0.7355 0.7654 0.0000
vt 0.7592 0.8086 0.0000
vt 0.8011 0.8128 0.0000
vt 0.7619 0.8128 0.0000
vt 0.8207 0.8438 0.0000
vt 0.8011 0.8753 0.0000
vt 0.7619 0.8753 0.0000
vt 0.7422 0.8438 0.0000
vt 0.7708 0.8237 0.0000
vt 0.7919 0.8237 0.0000
vt 0.8025 0.8438 0.0000
vt 0.7919 0.8623 0.0000
vt 0.7708 0.8623 0.0000
vt 0.7602 0.8438 0.0000
vt 0.8008 0.8824 0.0000
vt 0.7602 0.8824 0.0000
vt 0.7399 0.8438 0.0000
vt 0.7602 0.8081 0.0000
vt 0.8008 0.8081 0.0000
vt 0.8211 0.8438 0.0000
vt 0.7805 0.8438 0.0000
# 52 texture coords

g Tree_02_c
usemtl _SongShu_0201___Default
s 1
f 1/1/1 2/2/2 3/3/3 
f 3/3/3 2/2/2 4/4/4 
f 5/5/5 1/6/1 6/7/6 
f 1/6/1 5/5/5 2/8/2 
f 7/9/7 5/5/5 6/7/6 
f 5/5/5 7/9/7 8/10/8 
f 9/11/9 8/10/8 7/9/7 
f 9/11/9 7/9/7 10/12/10 
f 9/11/9 10/12/10 11/13/11 
f 10/12/10 12/14/12 11/13/11 
f 11/13/11 3/3/3 4/4/4 
f 3/3/3 11/13/11 12/14/12 
f 13/15/13 4/4/4 2/2/2 
f 2/2/2 14/16/14 13/15/13 
f 5/5/5 15/17/15 14/18/14 
f 5/5/5 14/18/14 2/8/2 
f 16/19/16 5/5/5 8/10/8 
f 5/5/5 16/19/16 15/17/15 
f 9/11/9 16/19/16 8/10/8 
f 16/19/16 9/11/9 17/20/17 
f 17/20/17 9/11/9 11/13/11 
f 17/20/17 11/13/11 18/21/18 
f 11/13/11 13/15/13 18/21/18 
f 13/15/13 11/13/11 4/4/4 
f 19/22/19 20/23/20 21/24/21 
f 20/23/20 19/22/19 22/25/22 
f 23/26/23 24/27/24 20/23/20 
f 23/26/23 20/23/20 22/25/22 
f 25/28/25 23/26/23 26/29/26 
f 23/26/23 25/28/25 24/27/24 
f 27/30/27 25/28/25 26/29/26 
f 25/28/25 27/30/27 28/31/28 
f 29/32/29 28/31/28 27/30/27 
f 28/31/28 29/32/29 30/33/30 
f 29/32/29 21/24/21 30/33/30 
f 21/24/21 29/32/29 19/22/19 
f 31/32/31 32/34/32 33/35/33 
f 32/34/32 31/32/31 34/22/34 
f 34/22/34 35/36/35 32/34/32 
f 35/36/35 34/22/34 36/25/36 
f 35/36/35 36/25/36 37/26/37 
f 35/36/35 37/26/37 38/37/38 
f 39/38/39 37/26/37 40/29/40 
f 37/26/37 39/38/39 38/37/38 
f 40/29/40 41/39/41 39/38/39 
f 41/39/41 40/29/40 42/30/42 
f 31/32/31 41/39/41 42/30/42 
f 41/39/41 31/32/31 33/35/33 
f 43/22/43 44/40/44 45/32/45 
f 44/40/44 43/22/43 46/41/46 
f 43/22/43 47/42/47 46/41/46 
f 47/42/47 43/22/43 48/25/48 
f 48/25/48 49/43/49 47/42/47 
f 49/43/49 48/25/48 50/26/50 
f 50/26/50 51/44/51 49/43/49 
f 51/44/51 50/26/50 52/29/52 
f 52/29/52 53/45/53 51/44/51 
f 53/45/53 52/29/52 54/30/54 
f 44/40/44 54/30/54 45/32/45 
f 54/30/54 44/40/44 53/45/53 
f 55/29/55 56/46/56 57/26/57 
f 56/46/56 55/29/55 58/47/58 
f 59/30/59 60/48/60 58/47/58 
f 59/30/59 58/47/58 55/29/55 
f 60/48/60 59/30/59 61/32/61 
f 60/48/60 61/32/61 62/49/62 
f 62/49/62 61/32/61 63/22/63 
f 62/49/62 63/22/63 64/50/64 
f 63/22/63 65/25/65 64/50/64 
f 65/25/65 66/51/66 64/50/64 
f 57/26/57 66/51/66 65/25/65 
f 66/51/66 57/26/57 56/46/56 
f 58/47/58 67/52/67 56/46/56 
f 60/48/60 67/52/67 58/47/58 
f 62/49/62 67/52/67 60/48/60 
f 64/50/64 67/52/67 62/49/62 
f 66/51/66 67/52/67 64/50/64 
f 56/46/56 67/52/67 66/51/66 
# 78 faces

